<svg width="24" height="24" viewBox="0 0 24 24" fill="none" xmlns="http://www.w3.org/2000/svg">
<rect width="24" height="24" fill="white" fill-opacity="0"/>
<path fill-rule="evenodd" clip-rule="evenodd" d="M9.0047 10.9951L13.5977 6.40205C13.6893 6.3086 13.7985 6.23422 13.919 6.18324C14.0395 6.13225 14.1689 6.10565 14.2998 6.10499C14.4306 6.10433 14.5603 6.12962 14.6813 6.17939C14.8023 6.22915 14.9123 6.30242 15.0048 6.39494C15.0973 6.48747 15.1706 6.59742 15.2204 6.71844C15.2701 6.83945 15.2954 6.96913 15.2948 7.09998C15.2941 7.23083 15.2675 7.36025 15.2165 7.48076C15.1655 7.60126 15.0912 7.71047 14.9977 7.80205L11.0977 11.7021L14.9977 15.6021C15.1803 15.7883 15.2819 16.0392 15.2806 16.3C15.2793 16.5608 15.1751 16.8106 14.9907 16.995C14.8062 17.1795 14.5565 17.2837 14.2956 17.285C14.0348 17.2863 13.784 17.1846 13.5977 17.0021L9.0047 12.4101C8.81723 12.2225 8.71191 11.9682 8.71191 11.7031C8.71191 11.4379 8.81723 11.1836 9.0047 10.9961V10.9951Z" fill="#42526E"/>
</svg>
