<svg width="23" height="24" viewBox="0 0 23 24" fill="none" xmlns="http://www.w3.org/2000/svg">
<rect width="24" height="24" fill="white" fill-opacity="0.01"/>
<path fill-rule="evenodd" clip-rule="evenodd" d="M14.9947 10.9951C15.1821 11.1826 15.2875 11.4369 15.2875 11.7021C15.2875 11.9672 15.1821 12.2215 14.9947 12.4091L10.4017 17.0021C10.2154 17.1846 9.96458 17.2863 9.70375 17.285C9.44292 17.2837 9.19315 17.1795 9.00871 16.995C8.82428 16.8106 8.72008 16.5608 8.71876 16.3C8.71745 16.0392 8.81911 15.7884 9.00168 15.6021L12.9017 11.7021L9.00168 7.80207C8.81911 7.61578 8.71745 7.36497 8.71876 7.10414C8.72008 6.84331 8.82428 6.59354 9.00871 6.4091C9.19315 6.22467 9.44292 6.12047 9.70375 6.11915C9.96458 6.11784 10.2154 6.21951 10.4017 6.40207L14.9947 10.9951Z" fill="#42526E"/>
</svg>
