<svg width="16" height="16" viewBox="0 0 16 16" fill="none" xmlns="http://www.w3.org/2000/svg">
<rect width="16" height="16" fill="white" fill-opacity="0.01"/>
<path fill-rule="evenodd" clip-rule="evenodd" d="M8.5109 2.65537C8.67288 2.72249 8.82004 2.82086 8.94399 2.94487L13.056 7.05621C13.1801 7.18016 13.2786 7.32737 13.3457 7.48941C13.4129 7.65144 13.4475 7.82513 13.4475 8.00054C13.4475 8.17595 13.4129 8.34964 13.3457 8.51168C13.2786 8.67371 13.1801 8.82092 13.056 8.94487L8.94399 13.0562C8.82004 13.1802 8.67288 13.2786 8.5109 13.3457C8.34893 13.4128 8.17532 13.4474 7.99999 13.4474C7.82466 13.4474 7.65104 13.4128 7.48907 13.3457C7.3271 13.2786 7.17993 13.1802 7.05599 13.0562L2.94399 8.94487C2.81988 8.82092 2.72142 8.67371 2.65424 8.51168C2.58707 8.34964 2.55249 8.17595 2.55249 8.00054C2.55249 7.82513 2.58707 7.65144 2.65424 7.48941C2.72142 7.32737 2.81988 7.18016 2.94399 7.05621L7.05599 2.94487C7.17993 2.82086 7.3271 2.72249 7.48907 2.65537C7.65104 2.58826 7.82466 2.55371 7.99999 2.55371C8.17532 2.55371 8.34893 2.58826 8.5109 2.65537ZM7.52858 9.13827C7.6536 9.2633 7.82317 9.33354 7.99998 9.33354C8.1768 9.33354 8.34636 9.2633 8.47139 9.13827C8.59641 9.01325 8.66665 8.84368 8.66665 8.66687V5.33354C8.66665 5.15673 8.59641 4.98716 8.47139 4.86213C8.34636 4.73711 8.1768 4.66687 7.99998 4.66687C7.82317 4.66687 7.6536 4.73711 7.52858 4.86213C7.40356 4.98716 7.33332 5.15673 7.33332 5.33354V8.66687C7.33332 8.84368 7.40356 9.01325 7.52858 9.13827ZM7.52858 11.1383C7.6536 11.2633 7.82317 11.3335 7.99998 11.3335C8.1768 11.3335 8.34636 11.2633 8.47139 11.1383C8.59641 11.0133 8.66665 10.8437 8.66665 10.6669C8.66665 10.4901 8.59641 10.3205 8.47139 10.1955C8.34636 10.0704 8.1768 10.0002 7.99998 10.0002C7.82317 10.0002 7.6536 10.0704 7.52858 10.1955C7.40356 10.3205 7.33332 10.4901 7.33332 10.6669C7.33332 10.8437 7.40356 11.0133 7.52858 11.1383Z" fill="#C90C0F"/>
</svg>
