<svg width="24" height="24" viewBox="0 0 24 24" fill="none" xmlns="http://www.w3.org/2000/svg">
<rect width="24" height="24" fill="white" fill-opacity="0.01"/>
<path d="M14.8228 15.8828C13.7122 16.7248 12.3234 17.1138 10.9371 16.9711C9.55074 16.8285 8.27024 16.1649 7.35438 15.1144C6.43851 14.0639 5.95559 12.7049 6.00321 11.3121C6.05084 9.91922 6.62545 8.59639 7.61092 7.61092C8.59639 6.62545 9.91922 6.05084 11.3121 6.00321C12.7049 5.95559 14.0639 6.43851 15.1144 7.35438C16.1649 8.27024 16.8285 9.55074 16.9711 10.9371C17.1138 12.3234 16.7248 13.7122 15.8828 14.8228L18.5298 17.4698C18.8228 17.7628 19.0598 18.0598 18.5298 18.5298C17.9998 18.9998 17.7628 18.8228 17.4698 18.5298L14.8228 15.8828ZM11.4998 15.4998C12.5607 15.4998 13.5781 15.0784 14.3282 14.3282C15.0784 13.5781 15.4998 12.5607 15.4998 11.4998C15.4998 10.4389 15.0784 9.42153 14.3282 8.67138C13.5781 7.92123 12.5607 7.49981 11.4998 7.49981C10.4389 7.49981 9.42153 7.92123 8.67138 8.67138C7.92123 9.42153 7.49981 10.4389 7.49981 11.4998C7.49981 12.5607 7.92123 13.5781 8.67138 14.3282C9.42153 15.0784 10.4389 15.4998 11.4998 15.4998Z" fill="#42526E"/>
</svg>
