<svg width="24" height="24" viewBox="0 0 24 24" fill="none" xmlns="http://www.w3.org/2000/svg">
<rect width="24" height="24" fill="white" fill-opacity="0.01"/>
<path fill-rule="evenodd" clip-rule="evenodd" d="M11.0005 6V15.586L7.20748 11.793C7.11469 11.7001 7.00448 11.6263 6.88317 11.576C6.76185 11.5257 6.63181 11.4998 6.50048 11.4998C6.36914 11.4998 6.2391 11.5257 6.11778 11.576C5.99647 11.6263 5.88626 11.7001 5.79348 11.793C5.40348 12.183 5.40348 12.817 5.79348 13.208L11.2935 18.707C11.3861 18.8002 11.4963 18.8741 11.6176 18.9243C11.739 18.9746 11.8691 19.0004 12.0005 19C12.1318 19.0004 12.262 18.9746 12.3833 18.9243C12.5047 18.8741 12.6149 18.8002 12.7075 18.707L18.2075 13.208C18.3004 13.1152 18.3741 13.0049 18.4244 12.8836C18.4747 12.7623 18.5006 12.6322 18.5007 12.5009C18.5007 12.3695 18.4749 12.2394 18.4247 12.1181C18.3745 11.9967 18.3008 11.8864 18.208 11.7935C18.1151 11.7006 18.0049 11.6269 17.8836 11.5766C17.7622 11.5263 17.6322 11.5003 17.5008 11.5003C17.3695 11.5003 17.2394 11.5261 17.118 11.5763C16.9967 11.6265 16.8864 11.7002 16.7935 11.793L13.0005 15.586V6C13.0005 5.73478 12.8951 5.48043 12.7076 5.29289C12.52 5.10536 12.2657 5 12.0005 5C11.7353 5 11.4809 5.10536 11.2934 5.29289C11.1058 5.48043 11.0005 5.73478 11.0005 6Z" fill="#0B0504"/>
</svg>
