<svg viewBox="0 0 9 7" fill="none" xmlns="http://www.w3.org/2000/svg">
<path fill-rule="evenodd" clip-rule="evenodd" d="M1.71929 2.38048C1.62704 2.28497 1.5167 2.20879 1.39469 2.15638C1.27269 2.10397 1.14147 2.07639 1.00869 2.07523C0.87591 2.07408 0.744231 2.09938 0.621334 2.14966C0.498438 2.19994 0.386786 2.2742 0.292893 2.36809C0.199001 2.46198 0.124748 2.57363 0.0744668 2.69653C0.0241859 2.81943 -0.00111606 2.95111 3.77564e-05 3.08388C0.00119157 3.21666 0.0287774 3.34788 0.0811864 3.46989C0.133595 3.59189 0.209778 3.70224 0.305288 3.79448L2.30529 5.79448C2.49282 5.98195 2.74712 6.08727 3.01229 6.08727C3.27745 6.08727 3.53176 5.98195 3.71929 5.79448L7.71929 1.79448C7.8148 1.70224 7.89098 1.59189 7.94339 1.46989C7.9958 1.34788 8.02339 1.21666 8.02454 1.08388C8.02569 0.951106 8.00039 0.819426 7.95011 0.69653C7.89983 0.573634 7.82558 0.461982 7.73168 0.368089C7.63779 0.274197 7.52614 0.199943 7.40324 0.149663C7.28035 0.0993817 7.14867 0.0740793 7.01589 0.0752331C6.88311 0.0763869 6.75189 0.103973 6.62988 0.156382C6.50788 0.208791 6.39754 0.284974 6.30529 0.380484L3.01229 3.67348L1.71929 2.38048Z" fill="#FAFAFA"/>
</svg>
