<svg width="300" height="282" viewBox="0 0 300 282" fill="none" xmlns="http://www.w3.org/2000/svg">
<g filter="url(#filter0_d)">
<path d="M141.925 198.77C141.925 198.77 161.896 205.912 172.714 213.87C179.661 218.98 183.449 220.445 190.364 228.577C200.785 240.833 204.876 254.855 214.683 268.061C221.615 277.396 222.544 284.956 225.074 289.174C227.428 293.096 226.39 295.95 226.447 298.783C226.522 302.463 237.649 303.094 241.547 307.608C245.273 311.922 246.45 316.375 250.96 316.04C253.706 315.835 245.865 297.282 244.88 295.057C239.585 283.095 236.398 265.737 235.076 257.012C234.096 250.541 229.163 230.781 225.271 216.223C222.808 207.011 217.282 187.787 209.19 180.924C192.698 166.935 165.714 151.663 165.714 151.663C165.714 151.663 156.558 161.358 153.3 173.276C150.339 184.11 141.925 198.77 141.925 198.77Z" fill="#E8C6A9"/>
<path d="M110.352 255.052C105.842 260.15 76.034 295.253 70.3466 310.353C66.8534 319.628 72.1118 336 70.7391 336.239C66.2289 337.024 65.75 333.247 62.5026 327.807C58.2638 320.707 50.9013 320.674 48.9999 317.294C47.5271 314.676 47.5984 312.512 49.5986 309.766C51.4705 307.197 53.874 303.098 53.874 303.098C53.874 303.098 61.9601 280.758 70.3466 260.739C76.4259 246.227 83.905 233.829 88.5846 220.341C95.2524 201.123 98.7823 190.337 103.685 172.688C107.092 160.421 117.02 157.392 117.02 157.392L129.571 169.942L145.651 177.395C145.651 177.395 153.468 185.562 151.731 190.729C139.929 225.832 116.622 247.964 110.352 255.052Z" fill="#EFCFB3"/>
<ellipse cx="172.321" cy="26.5896" rx="11.3741" ry="10.5896" fill="#0B0504"/>
<path d="M203.699 44.2393C191.932 48.1614 194.687 64.8303 185.265 64.8303C175.842 64.8303 170.753 58.6466 170.753 48.3575C170.753 38.0685 178.784 30.3159 188.206 30.3159C197.629 30.3159 203.699 33.9503 203.699 44.2393Z" fill="#0B0504"/>
<path d="M26.0273 116.798C30.1566 115.557 33.0871 117.779 33.6754 119.151C33.9789 119.859 33.6754 123.858 33.6754 123.858C33.6754 123.858 41.4934 123.908 44.069 122.877C56.8158 117.779 66.0331 114.586 78.5834 108.169C92.0192 101.3 98.2862 95.2252 109.372 88.559C123.347 80.155 128.397 73.1535 143.102 70.3213C152.352 68.5397 168.007 70.3213 168.007 70.3213L174.086 59.7316C174.086 59.7316 176.659 61.6494 178.597 61.8888C180.371 62.108 183.288 60.5161 183.892 59.7316C185.853 57.1823 186.245 53.4563 186.245 53.4563C186.245 53.4563 183.107 51.4214 183.107 49.3381C183.107 45.0238 185.672 43.8472 188.01 43.8472C189.971 43.8472 191.344 44.8825 192.716 45.2199C194.612 45.6859 194.873 45.6121 197.619 45.2199C199.397 44.9659 201.933 44.6316 201.933 44.6316C201.933 44.6316 202.129 52.4758 198.599 58.3589C196.561 61.7567 195.835 65.4307 192.128 66.9875C188.951 68.3219 183.107 67.5758 183.107 67.5758L180.754 72.8706C180.754 72.8706 195.462 75.8122 211.934 89.9317C222.03 98.5851 235.795 108.366 243.311 108.366C247.626 108.366 253.109 100.8 258.215 95.4227C263.438 89.922 268.407 81.8915 268.413 79.7343C268.424 75.4477 264.117 73.7056 265.863 70.3213C267.61 66.937 273.376 66.8678 276.649 69.5369C279.108 71.5424 279.431 75.0212 279.002 78.1655C278.414 82.4798 275.293 90.9641 272.923 97.5798C268.234 110.671 264.294 118.563 258.215 130.722C257.137 132.879 249.979 137.977 245.468 137.977C232.21 137.977 225.992 135.761 213.503 131.31C202.72 127.466 195.718 125.223 185.656 119.151C177.813 114.418 167.223 104.836 167.223 104.836L137.023 105.816C137.023 105.816 119.887 119.918 107.215 125.427C93.0583 131.58 80.1522 135.624 67.9937 137.389C56.019 139.127 46.03 139.154 36.2248 136.605C32.6949 135.687 22.8896 129.937 21.713 125.819C20.6403 122.064 21.8863 118.043 26.0273 116.798Z" fill="#EFCFB3"/>
<path d="M131.532 132.878L165.458 146.41L164.281 150.332L170.949 154.058L161.732 165.432C161.732 165.432 160.164 174.31 158.594 179.747C157.024 185.185 153.691 193.279 153.691 193.279L101.724 175.433C101.724 175.433 106.75 160.285 111.921 152.489C117.909 143.462 131.532 132.878 131.532 132.878Z" fill="#42526E"/>
<path d="M150.946 69.5366H153.691V78.9496C153.691 78.9496 154.084 85.0289 154.672 87.9705C155.365 91.4371 164.673 93.8536 171.929 96.2068C181.342 99.2597 183.891 97.5796 186.833 95.4224C189.404 93.5371 190.037 90.8992 191.147 87.186C192.29 83.3642 192.128 76.9886 192.128 76.9886L194.481 78.1652C194.481 78.1652 194.089 82.8717 193.501 87.9705C193.091 91.5194 191.147 95.9383 191.147 100.325C191.147 106.012 190.578 111.116 188.402 115.033C186.441 118.563 181.342 121.308 176.439 124.642C174.132 126.211 171.481 131.399 169.184 136.212C167.253 140.257 165.261 146.998 165.261 146.998L130.747 133.663C130.747 133.663 132.808 119.626 134.277 109.346C134.865 105.228 136.644 103.537 138.983 100.325C142.207 95.8984 150.358 89.5393 150.358 89.5393L150.946 69.5366Z" fill="#FFAB00"/>
</g>
<defs>
<filter id="filter0_d" x="1.34766" y="0" width="297.814" height="360.342" filterUnits="userSpaceOnUse" color-interpolation-filters="sRGB">
<feFlood flood-opacity="0" result="BackgroundImageFix"/>
<feColorMatrix in="SourceAlpha" type="matrix" values="0 0 0 0 0 0 0 0 0 0 0 0 0 0 0 0 0 0 127 0"/>
<feOffset dy="4"/>
<feGaussianBlur stdDeviation="10"/>
<feColorMatrix type="matrix" values="0 0 0 0 0 0 0 0 0 0 0 0 0 0 0 0 0 0 0.1 0"/>
<feBlend mode="normal" in2="BackgroundImageFix" result="effect1_dropShadow"/>
<feBlend mode="normal" in="SourceGraphic" in2="effect1_dropShadow" result="shape"/>
</filter>
</defs>
</svg>
