<svg width="217" height="457" viewBox="0 0 217 457" fill="none" xmlns="http://www.w3.org/2000/svg">
<g filter="url(#filter0_d)">
<path d="M123.498 343.847C120.216 363.154 109.018 390.956 113.072 409.105C114.236 414.318 115.775 432.273 111.72 432.274C107.666 432.274 108.643 423.773 106.894 419.917C104.502 414.642 102.596 413.779 100.136 410.65C98.2307 408.226 96.0818 406.016 96.0818 404.858C96.0818 402.926 98.3629 398.486 98.3629 398.486C98.3629 398.486 93.958 360.065 93.958 345.971C93.958 330.145 99.2952 322.215 98.3985 309.481C97.6347 298.634 92.0919 279.813 91.0619 273.955C87.9728 256.386 87.9728 232.831 87.9728 232.831L120.712 257.823L137.592 260.054C137.592 260.054 140.423 293.095 138.75 298.475C134.31 312.763 125.138 334.198 123.498 343.847Z" fill="#F1AC70"/>
<path d="M96.2756 16.0116C91.8349 16.0115 85.9797 22.9474 86.2357 32.0363C87.0081 59.4526 90.4835 65.2448 93.9587 86.4825C96.1263 99.7293 101.681 120.077 101.681 120.077L110.177 147.3L134.503 153.671C134.503 153.671 135.276 143.246 135.276 138.033C135.276 130.31 128.393 111.142 123.499 97.2944C118.952 84.4314 114.908 78.3026 110.177 65.8238C104.91 51.9345 98.0132 36.8633 99.1716 27.5959C99.6171 24.0321 105.004 22.383 104.191 19.2936C103.226 15.6255 100.716 16.0118 96.2756 16.0116Z" fill="#F1AC70"/>
<path d="M98.3988 106.948L82.3739 120.463L93.7651 131.854C93.7651 131.854 96.4681 132.819 96.4681 136.295C96.4681 141.121 85.27 142.666 80.4432 146.527C67.5074 156.876 62.546 170.699 57.2747 187.845C53.2758 200.851 51.9842 210.82 53.4132 220.281C54.5215 227.617 58.8623 235.408 63.0668 244.801C66.993 253.572 72.7204 263.915 74.0719 266.811C74.7445 268.252 71.9481 269.9 71.9481 271.058C71.9481 273.144 74.0719 273.761 76.0026 273.761C79.7891 273.761 82.3505 271.638 83.1462 270.093C86.4284 263.722 77.9333 242.291 77.9333 231.865C77.9333 229.162 77.9001 225.3 78.5125 221.825C79.9901 213.44 82.3431 206.247 85.6561 196.533C88.2143 189.032 88.6232 184.224 92.9929 177.612C95.2657 174.173 99.7504 169.503 99.7504 169.503L100.523 159.077L120.023 161.587L135.662 157.532L125.236 144.983L114.81 139.191L108.052 138.225C108.052 138.225 106.502 135.987 105.929 134.364C105.367 132.774 105.156 130.116 105.156 130.116C105.156 130.116 113.653 126.609 113.265 122.2C113.062 119.88 111.71 118.892 110.369 116.987C108.65 114.544 107.433 113.323 105.156 111.388C102.75 109.343 98.3988 106.948 98.3988 106.948Z" fill="#FBB375"/>
<path d="M100.137 106.176C99.4004 103.28 90.7186 101.313 85.4633 102.121C75.4233 103.666 74.0721 110.809 74.0721 110.809C74.0721 110.809 68.5657 108.076 64.9974 110.037C60.6222 112.441 59.5444 116.669 60.1709 121.621C60.854 127.021 64.5753 131.854 70.0176 131.854C77.9335 131.854 79.4778 125.869 79.4778 125.869C79.4778 125.869 90.6956 130.802 93.1861 132.047C93.5723 132.24 94.5376 131.243 94.7307 130.889C95.8891 128.765 92.2205 126.641 92.2205 126.641C92.2205 126.641 86.9736 124.498 86.8145 121.621C86.7397 120.27 91.1774 118.6 93.572 116.215C97.0128 112.789 101.333 110.882 100.137 106.176Z" fill="#FFAB00"/>
<path d="M161.147 222.791L130.063 208.311L99.3644 235.147L104.191 248.662L115.775 255.806C115.775 255.806 103.473 263.632 95.3102 268.163C87.3202 272.598 75.2307 277.623 75.2307 277.623C75.2307 277.623 70.3724 275.149 68.2802 276.079C64.8049 277.623 58.6266 284.767 54.7652 286.311C53.2441 286.92 44.2696 293.841 46.27 296.544C47.455 298.145 49.0945 298.425 50.9036 297.896C58.8197 295.579 75.2307 288.049 75.2307 288.049C75.2307 288.049 98.3425 287.082 113.073 285.539C135.719 283.167 152.459 280.813 170.608 276.079C174.469 275.071 194.537 268.549 196.286 259.668C198.835 246.732 192.039 243.836 183.351 237.078C175.893 231.278 161.147 222.791 161.147 222.791Z" fill="#FBB375"/>
<path d="M112.879 138.033H109.79C109.79 138.033 115.314 140.803 120.602 143.825C123.305 145.369 129.87 151.934 129.87 151.934C129.87 151.934 125.318 152.438 123.498 153.671C121.364 155.119 117.32 158.305 117.32 158.305C117.32 158.305 108.876 154.855 103.998 155.409C100.941 155.757 98.592 157.919 98.592 157.919C98.592 157.919 94.8906 152.836 92.4137 149.81C90.1509 147.046 86.6216 143.053 86.6216 143.053L84.3047 144.404C84.3047 144.404 88.8802 148.108 91.2553 151.162C93.6304 154.215 97.0474 159.85 97.0474 159.85C97.0474 159.85 97.9319 165.449 97.0474 169.117C96.2011 172.627 92.9929 177.612 92.9929 177.612C92.9929 177.612 98.5021 184.875 98.2058 192.093C97.9286 198.847 92.1326 205.919 90.0969 212.365C88.0611 218.812 86.4235 225.88 87.0077 229.742C89.0815 243.45 104.77 249.049 104.77 249.049C104.77 249.049 104.794 230.955 116.741 222.791C128.325 214.875 144.543 215.454 144.543 215.454C144.543 215.454 131.028 208.311 131.028 201.36C131.028 194.41 135.276 182.053 135.276 182.053C135.276 182.053 143.133 171.292 141.647 163.711C140.245 156.558 129.87 148.845 129.87 148.845C129.87 148.845 124.859 143.94 121.374 141.894C118.087 139.964 112.879 138.033 112.879 138.033Z" fill="#A72A1D"/>
<path d="M149.148 252.333C149.148 252.333 138.533 251.144 131.607 252.331C125.205 253.428 116.326 256.195 116.326 256.195" stroke="#AF7848" stroke-width="2" stroke-linecap="round"/>
<path d="M91.0624 119.884C91.0624 119.884 87.4465 120.657 87.9734 122.587C88.3421 123.938 90.8695 125.95 92.6069 125.87C93.4656 125.83 95.1163 125.484 95.1163 125.484" stroke="#AF7645" stroke-width="2" stroke-linecap="round"/>
</g>
<defs>
<filter id="filter0_d" x="25.981" y="0" width="190.847" height="456.274" filterUnits="userSpaceOnUse" color-interpolation-filters="sRGB">
<feFlood flood-opacity="0" result="BackgroundImageFix"/>
<feColorMatrix in="SourceAlpha" type="matrix" values="0 0 0 0 0 0 0 0 0 0 0 0 0 0 0 0 0 0 127 0"/>
<feOffset dy="4"/>
<feGaussianBlur stdDeviation="10"/>
<feColorMatrix type="matrix" values="0 0 0 0 0 0 0 0 0 0 0 0 0 0 0 0 0 0 0.1 0"/>
<feBlend mode="normal" in2="BackgroundImageFix" result="effect1_dropShadow"/>
<feBlend mode="normal" in="SourceGraphic" in2="effect1_dropShadow" result="shape"/>
</filter>
</defs>
</svg>
