<svg width="7" height="6" viewBox="0 0 7 6" fill="none" xmlns="http://www.w3.org/2000/svg">
<path d="M3.49902 2.58742L1.95523 1.04363C1.90022 0.990503 1.82654 0.961104 1.75007 0.961769C1.6736 0.962433 1.60044 0.993108 1.54636 1.04719C1.49229 1.10126 1.46161 1.17442 1.46095 1.25089C1.46028 1.32736 1.48968 1.40104 1.54281 1.45605L3.0866 2.99984L1.54281 4.54363C1.48968 4.59864 1.46028 4.67232 1.46095 4.74879C1.46161 4.82526 1.49229 4.89842 1.54636 4.9525C1.60044 5.00657 1.6736 5.03725 1.75007 5.03791C1.82654 5.03858 1.90022 5.00918 1.95523 4.95605L3.49902 3.41226L5.04281 4.95605C5.09782 5.00918 5.1715 5.03858 5.24797 5.03791C5.32444 5.03725 5.3976 5.00657 5.45168 4.9525C5.50575 4.89842 5.53643 4.82526 5.53709 4.74879C5.53776 4.67232 5.50836 4.59864 5.45523 4.54363L3.91144 2.99984L5.45523 1.45605C5.48309 1.42914 5.50531 1.39696 5.52059 1.36138C5.53588 1.32579 5.54392 1.28752 5.54426 1.24879C5.5446 1.21006 5.53722 1.17166 5.52255 1.13581C5.50789 1.09997 5.48623 1.0674 5.45884 1.04002C5.43146 1.01263 5.39889 0.990974 5.36305 0.976309C5.3272 0.961644 5.2888 0.954264 5.25007 0.954601C5.21134 0.954937 5.17307 0.962983 5.13749 0.978269C5.1019 0.993555 5.06972 1.01578 5.04281 1.04363L3.49902 2.58742Z" fill="#42526E" stroke="#42526E" stroke-width="1.5"/>
</svg>
