<svg width="24" height="24" viewBox="0 0 24 24" fill="none" xmlns="http://www.w3.org/2000/svg">
<rect width="24" height="24" fill="white" fill-opacity="0.01"/>
<path fill-rule="evenodd" clip-rule="evenodd" d="M4.01977 19.23C3.98666 19.392 3.99423 19.5597 4.04181 19.718C4.08939 19.8764 4.17549 20.0205 4.29241 20.1374C4.40932 20.2543 4.5534 20.3404 4.71175 20.388C4.8701 20.4355 5.03777 20.4431 5.19977 20.41L9.00977 19.63L4.79977 15.42L4.01977 19.23ZM19.8438 6.707L17.7238 4.585C17.5379 4.39908 17.3171 4.2517 17.0741 4.15131C16.8311 4.05092 16.5707 3.9995 16.3078 4C15.7958 4 15.2838 4.195 14.8928 4.585L5.13577 14.343L10.0858 19.293L19.8428 9.535C20.2177 9.15995 20.4283 8.65133 20.4283 8.121C20.4283 7.59068 20.2177 7.08206 19.8428 6.707H19.8438Z" fill="#42526E"/>
</svg>
