<svg width="744" height="662" viewBox="0 0 744 662" fill="none" xmlns="http://www.w3.org/2000/svg">
<path d="M163.675 154.029C251.237 75.1157 305.421 1.6353 423.289 0.0535778C528.538 -1.3588 619.72 24.9326 687.907 105.112C737.619 163.568 746.427 220.766 743.499 297.443C741.237 356.658 712.032 384.509 687.907 438.634C668.025 483.238 664.111 513.383 632.871 550.919C607.906 580.915 588.838 593.839 555.598 614.288C517.138 637.949 493.28 650.626 448.862 658.758C381.06 671.171 342.151 644.79 274.303 632.632C213.869 621.802 173.212 632.11 120.314 600.948C29.543 547.474 -9.65124 462.612 3.01468 358.033C15.207 257.364 88.3444 221.92 163.675 154.029Z" fill="#F5F6F7"/>
<g filter="url(#filter0_d)">
<circle cx="506.902" cy="87.101" r="8.01606" fill="#521919"/>
<circle cx="503.085" cy="100.461" r="9.92464" fill="#521919"/>
<circle cx="498.695" cy="117.448" r="11.2607" fill="#521919"/>
<ellipse cx="494.687" cy="135.77" rx="15.2687" ry="15.0778" fill="#521919"/>
<path d="M462.24 355.256C462.984 368.152 467.451 408.035 463.195 419.385C459.76 428.546 457.587 441.525 462.241 441.525C465.486 441.525 465.837 435.139 468.349 431.791C471.784 427.21 474.467 424.933 477.51 422.439C479.867 420.507 480.085 419.941 480.182 417.095C480.247 415.186 477.51 412.514 477.51 412.514C477.51 412.514 485.198 382.558 488.77 360.601C491.283 345.159 489.384 339.491 492.969 327.391C496.023 317.085 498.642 306.596 500.604 301.053C504.993 288.647 508.047 275.669 508.047 275.669L489.342 266.697L465.188 263.834C465.188 263.834 462.494 298.351 462.24 303.915C461.09 329.16 461.684 345.596 462.24 355.256Z" fill="#885327"/>
<path d="M612.256 183.867C624.232 179.025 651.764 164.59 661.879 157.91C666.201 155.056 683.53 130.495 684.591 135.026C685.927 140.732 681.025 144.574 679.629 150.848C677.806 159.036 679.629 164.398 678.675 168.216C677.935 171.172 676.435 172.064 673.903 173.369C671.015 174.857 666.269 175.277 666.269 175.277C666.269 175.277 656.153 192.455 637.831 205.071C624.946 213.944 612.964 217.561 602.713 224.921C585.726 237.116 578.562 242.676 561.678 251.068C550.028 256.86 531.332 265.574 531.332 265.574V237.307L538.775 212.686C538.775 212.686 547.596 211.477 552.517 208.869C574.848 197.036 603.285 187.493 612.256 183.867Z" fill="#A66732"/>
<path d="M479.418 214.594L534.195 211.541L543.738 210.014C543.738 210.014 534.577 221.847 534.195 238.642C533.955 249.187 535.722 265.553 535.722 265.553C535.722 265.553 529.352 266.281 525.034 267.271C519.959 268.435 512.819 269.335 512.055 270.325C511.089 271.579 510.187 272.535 509.479 273.951C508.771 275.367 508.429 277.578 508.429 277.578C508.429 277.578 495.189 273.382 486.48 271.661C477.855 269.957 463.768 269.18 463.768 269.18C463.768 269.18 465.649 255.691 467.776 247.04C471.015 233.867 479.418 214.594 479.418 214.594Z" fill="#42526E"/>
<path d="M507.43 242.427C507.202 241.924 506.609 241.702 506.106 241.931C505.603 242.16 505.381 242.753 505.61 243.256L507.43 242.427ZM511.055 269.821C511.009 270.371 511.418 270.855 511.968 270.901C512.519 270.947 513.002 270.538 513.048 269.988L511.055 269.821ZM506.52 242.841C505.61 243.256 505.61 243.256 505.61 243.256C505.61 243.256 505.61 243.256 505.61 243.256C505.61 243.256 505.611 243.257 505.611 243.257C505.611 243.258 505.612 243.259 505.613 243.261C505.615 243.266 505.618 243.272 505.621 243.28C505.629 243.297 505.64 243.322 505.655 243.355C505.685 243.421 505.729 243.519 505.785 243.646C505.899 243.9 506.062 244.269 506.261 244.727C506.659 245.646 507.201 246.922 507.776 248.355C508.933 251.243 510.189 254.69 510.691 257.128L512.649 256.724C512.108 254.094 510.789 250.499 509.632 247.611C509.049 246.156 508.5 244.862 508.096 243.931C507.894 243.466 507.728 243.091 507.612 242.831C507.554 242.702 507.509 242.601 507.478 242.533C507.463 242.499 507.451 242.472 507.443 242.455C507.439 242.446 507.436 242.439 507.434 242.434C507.433 242.432 507.432 242.43 507.431 242.429C507.431 242.428 507.431 242.428 507.431 242.427C507.431 242.427 507.431 242.427 507.431 242.427C507.43 242.427 507.43 242.427 506.52 242.841ZM510.691 257.128C511.189 259.551 511.287 262.706 511.252 265.302C511.235 266.591 511.185 267.723 511.14 268.534C511.118 268.938 511.096 269.262 511.081 269.484C511.073 269.594 511.066 269.68 511.062 269.737C511.06 269.765 511.058 269.787 511.057 269.801C511.056 269.808 511.056 269.813 511.056 269.817C511.055 269.818 511.055 269.819 511.055 269.82C511.055 269.821 511.055 269.821 511.055 269.821C511.055 269.821 511.055 269.821 511.055 269.821C511.055 269.821 511.055 269.821 512.052 269.904C513.048 269.988 513.048 269.988 513.048 269.987C513.048 269.987 513.048 269.987 513.048 269.987C513.048 269.987 513.048 269.986 513.048 269.985C513.048 269.984 513.049 269.983 513.049 269.98C513.049 269.976 513.05 269.97 513.05 269.962C513.052 269.946 513.053 269.922 513.056 269.892C513.061 269.83 513.067 269.741 513.076 269.625C513.092 269.395 513.114 269.061 513.137 268.645C513.184 267.813 513.234 266.652 513.252 265.329C513.287 262.703 513.194 259.369 512.649 256.724L510.691 257.128Z" fill="#42526E"/>
<rect x="475.601" y="197.799" width="16.0321" height="19.0858" fill="#A72A1D"/>
<path d="M510.91 142.068C511.509 139.311 509.765 136.533 509.765 136.533C509.765 136.533 499.951 134.22 494.306 134.434C488.781 134.643 480.182 137.679 480.182 137.679C480.182 137.679 478.576 140.375 478.655 142.259C478.747 144.424 480.303 145.222 481.136 147.221C482.307 150.029 481.646 152.199 483.427 154.665C484.885 156.685 488.485 158.04 489.725 160.2C489.725 165.353 489.534 167.834 489.534 167.834C489.534 167.834 477.51 167.071 467.967 175.087C458 183.459 454.551 193.087 448.881 204.861C443.091 216.885 443.062 224.643 445.064 228.145C448.881 234.825 462.417 234.829 473.311 235.207C480.879 235.47 491.443 232.726 491.443 232.726L499.077 231.772C499.077 231.772 493.751 224.95 491.061 220.129C489.761 217.801 488.007 214.022 488.007 214.022C488.007 214.022 480.754 213.258 479.418 211.541C478.528 210.396 481.9 199.898 481.9 199.898C481.9 199.898 479.23 192.748 475.41 190.355C471.641 187.994 468.539 188.065 467.585 186.157C466.918 184.821 470.574 182.928 471.402 182.721C472.929 182.339 477.128 181.958 481.136 182.149C485.157 182.34 490.87 185.775 490.87 185.775C490.87 185.775 494.907 188.89 497.359 191.31C499.541 193.463 500.653 195.086 502.417 197.66L502.512 197.799C504.699 200.99 507.856 207.724 507.856 207.724L522.171 169.552L503.276 166.116C503.276 166.116 502.131 162.108 502.131 159.436C502.909 158.06 504.411 157.447 505.375 155.81C506.707 153.552 505.975 151.692 507.093 149.321C508.275 146.813 510.322 144.778 510.91 142.068Z" fill="#A66732"/>
<path d="M474.838 170.887C474.838 170.887 475.738 170.352 476.365 170.124C476.942 169.913 477.892 169.742 477.892 169.742C477.892 169.742 480.283 172.469 481.327 174.513C482.766 177.331 483.427 182.339 483.427 182.339L488.389 190.927C488.389 190.927 497.168 190.546 502.322 189.782C505.704 189.281 510.528 187.11 510.528 187.11C510.528 187.11 510.729 180.676 511.483 176.613C512.083 173.378 513.773 168.024 513.773 168.024C513.773 168.024 514.587 168.179 515.109 168.253C515.631 168.328 516.636 168.559 516.636 168.559C516.636 168.559 514.828 174.186 514.536 177.949C514.261 181.516 513.773 187.11 513.773 187.11H515.682L519.88 214.594L495.451 203.906L480.755 182.339C480.755 182.339 480.37 178.703 479.418 176.613C478.232 174.007 474.838 170.887 474.838 170.887Z" fill="#A72A1D"/>
<path d="M530.758 219.175C536.132 211.297 540.806 201.425 540.873 196.845C540.977 189.849 540.435 185.428 536.865 179.476C531.599 170.697 522.169 169.552 522.169 169.552L507.855 207.723C507.855 207.723 504.213 199.483 498.885 193.027C495.419 188.828 488.77 183.432 484.761 182.53C477.128 180.812 466.135 182.575 467.203 186.729C467.694 188.638 474.096 187.762 476.746 191.691C482.283 199.898 482.854 205.051 489.914 217.839C495.315 227.62 500.604 236.161 510.145 236.161C516.063 236.161 524.535 228.298 530.758 219.175Z" fill="url(#paint0_linear)"/>
</g>
<g filter="url(#filter1_d)">
<path d="M350.668 407.877C354.444 430.091 367.328 462.081 362.664 482.963C361.324 488.961 359.553 509.62 364.219 509.62C368.884 509.62 367.76 499.84 369.772 495.403C372.525 489.334 374.717 488.34 377.547 484.74C379.74 481.951 382.212 479.409 382.212 478.075C382.212 475.853 379.588 470.745 379.588 470.745C379.588 470.745 384.656 426.538 384.656 410.32C384.656 392.111 378.515 382.987 379.547 368.335C380.426 355.854 386.803 334.199 387.988 327.459C391.543 307.244 391.543 280.142 391.543 280.142L353.873 308.898L334.451 311.465C334.451 311.465 331.194 349.482 333.118 355.672C338.227 372.111 348.78 396.774 350.668 407.877Z" fill="#F1AC70"/>
<path d="M381.989 30.6701C387.099 30.67 393.836 38.6504 393.541 49.1081C392.652 80.6532 388.654 87.3178 384.655 111.754C382.161 126.996 375.769 150.407 375.769 150.407L365.995 181.73L338.005 189.061C338.005 189.061 337.116 177.065 337.116 171.067C337.116 162.181 345.035 140.127 350.667 124.194C355.898 109.394 360.55 102.342 365.995 87.9839C372.055 72.0029 379.99 54.6621 378.657 43.999C378.145 39.8984 371.946 38.001 372.881 34.4463C373.992 30.2258 376.88 30.6703 381.989 30.6701Z" fill="#F1AC70"/>
<path d="M379.546 135.302L397.985 150.852L384.878 163.959C384.878 163.959 381.768 165.07 381.768 169.068C381.768 174.622 394.652 176.399 400.206 180.842C415.09 192.749 420.798 208.654 426.864 228.382C431.465 243.347 432.951 254.817 431.307 265.702C430.032 274.144 425.037 283.108 420.199 293.915C415.682 304.008 409.092 315.908 407.537 319.24C406.763 320.898 409.98 322.794 409.98 324.127C409.98 326.527 407.537 327.237 405.315 327.237C400.959 327.237 398.011 324.794 397.096 323.017C393.319 315.686 403.094 291.027 403.094 279.031C403.094 275.921 403.132 271.478 402.427 267.48C400.727 257.831 398.02 249.555 394.208 238.378C391.265 229.748 390.794 224.215 385.766 216.608C383.151 212.651 377.991 207.278 377.991 207.278L377.103 195.282L354.666 198.17L336.672 193.504L348.668 179.065L360.664 172.4L368.439 171.29C368.439 171.29 370.223 168.714 370.882 166.847C371.529 165.018 371.771 161.959 371.771 161.959C371.771 161.959 361.995 157.924 362.441 152.851C362.675 150.182 364.231 149.045 365.773 146.853C367.752 144.042 369.152 142.638 371.771 140.411C374.539 138.058 379.546 135.302 379.546 135.302Z" fill="#FBB375"/>
<path d="M377.547 134.413C378.394 131.081 388.383 128.818 394.43 129.748C405.982 131.525 407.537 139.744 407.537 139.744C407.537 139.744 413.872 136.6 417.978 138.856C423.012 141.622 424.252 146.486 423.531 152.185C422.746 158.397 418.464 163.959 412.202 163.959C403.094 163.959 401.317 157.072 401.317 157.072C401.317 157.072 388.41 162.748 385.544 164.181C385.1 164.403 383.989 163.255 383.767 162.848C382.434 160.404 386.655 157.961 386.655 157.961C386.655 157.961 392.692 155.495 392.875 152.185C392.961 150.63 387.856 148.709 385.1 145.965C381.141 142.022 376.17 139.828 377.547 134.413Z" fill="#FFAB00"/>
<path d="M307.348 268.59L343.114 251.929L378.436 282.808L372.882 298.358L359.553 306.578C359.553 306.578 373.708 315.582 383.1 320.795C392.294 325.898 406.204 331.68 406.204 331.68C406.204 331.68 411.794 328.833 414.201 329.903C418.2 331.68 425.308 339.9 429.751 341.677C431.502 342.377 441.828 350.341 439.526 353.451C438.162 355.293 436.276 355.615 434.195 355.006C425.086 352.34 406.204 343.676 406.204 343.676C406.204 343.676 379.611 342.563 362.663 340.788C336.606 338.059 317.345 335.35 296.463 329.903C292.02 328.744 268.931 321.239 266.917 311.02C263.985 296.137 271.804 292.804 281.801 285.029C290.382 278.356 307.348 268.59 307.348 268.59Z" fill="#FBB375"/>
<path d="M362.885 171.067H366.44C366.44 171.067 360.084 174.255 353.999 177.732C350.889 179.509 343.336 187.062 343.336 187.062C343.336 187.062 348.574 187.642 350.667 189.061C353.123 190.727 357.776 194.393 357.776 194.393C357.776 194.393 367.491 190.423 373.104 191.061C376.621 191.46 379.324 193.949 379.324 193.949C379.324 193.949 383.583 188.1 386.433 184.618C389.036 181.438 393.097 176.843 393.097 176.843L395.763 178.398C395.763 178.398 390.499 182.66 387.766 186.173C385.033 189.687 381.101 196.17 381.101 196.17C381.101 196.17 380.084 202.613 381.101 206.833C382.075 210.872 385.766 216.608 385.766 216.608C385.766 216.608 379.428 224.965 379.768 233.269C380.087 241.041 386.756 249.177 389.099 256.594C391.441 264.012 393.325 272.145 392.653 276.588C390.267 292.36 372.215 298.802 372.215 298.802C372.215 298.802 372.189 277.984 358.442 268.59C345.113 259.482 326.453 260.149 326.453 260.149C326.453 260.149 342.003 251.929 342.003 243.932C342.003 235.934 337.116 221.717 337.116 221.717C337.116 221.717 328.076 209.336 329.785 200.613C331.398 192.383 343.336 183.508 343.336 183.508C343.336 183.508 349.101 177.865 353.111 175.51C356.894 173.289 362.885 171.067 362.885 171.067Z" fill="#A72A1D"/>
<path d="M321.155 302.581C321.155 302.581 333.368 301.213 341.337 302.579C348.703 303.841 358.92 307.024 358.92 307.024" stroke="#AF7848" stroke-width="2" stroke-linecap="round"/>
<path d="M387.988 150.185C387.988 150.185 392.148 151.074 391.542 153.295C391.118 154.85 388.21 157.165 386.211 157.072C385.223 157.027 383.323 156.628 383.323 156.628" stroke="#AF7645" stroke-width="2" stroke-linecap="round"/>
</g>
<g filter="url(#filter2_d)">
<path d="M360.31 285.596C360.31 290.36 354.093 293.415 343.394 296.794C311.707 306.8 307.895 308.468 291.218 317.997C274.541 327.526 264.534 336.104 264.534 336.104L220.935 364.694L189.248 352.543C189.248 352.543 216.352 332.838 220.935 328.323C231.418 317.997 246.054 310.093 261.913 301.319C272.635 295.389 282.242 291.094 298.365 287.739C315.518 284.171 335.211 286.761 345.538 285.595C349.942 285.098 347.416 280.717 351.971 279.64C356.526 278.562 360.31 280.831 360.31 285.596Z" fill="#BF7C4C"/>
<path d="M162.562 222.221C168.056 222.221 182.576 233.326 184.005 241.281C189.485 271.777 186.255 274.173 191.867 300.129C195.368 316.319 201.397 323.954 208.783 337.057C209.723 338.725 227.842 345.211 234.037 343.49C240.231 341.769 248.156 326.574 254.05 326.574C264.295 326.574 272.633 341.346 272.633 341.346L279.542 353.973L259.291 363.741C259.291 363.741 252.62 358.5 247.855 356.832C242.568 354.982 239.1 359.666 235.228 363.741C230.701 368.506 225.222 375.177 225.222 375.177C225.222 375.177 216.883 384.469 212.594 386.137C202.353 390.12 187.293 387.566 180.669 377.56C169.472 360.644 157.486 337.302 156.844 319.189C156.248 302.364 158.713 292.19 159.703 285.834C162.562 267.489 164.945 249.144 162.562 237.708C161.658 233.369 154.462 233.007 153.998 229.092C153.448 224.444 157.069 222.221 162.562 222.221Z" fill="#D39365"/>
<path d="M257.624 355.641C257.624 355.641 254.704 359.105 252.383 358.261C249.762 357.309 246.967 352.779 248.571 351.353C250.715 349.446 253.574 350.876 253.574 350.876" stroke="#81573A" stroke-width="2" stroke-linecap="round"/>
<path d="M134.926 458.326C134.926 458.326 157.145 434.32 173.046 424.257C188.597 414.414 213.548 408.056 213.548 408.056L216.169 472.621C216.169 472.621 211.796 483.482 204.018 491.205C196.953 498.219 179.002 510.503 179.002 510.503L161.133 482.389L134.926 458.326Z" fill="#A72A1D"/>
<path d="M169.949 358.976C169.949 358.976 181.073 384.705 197.109 386.613C215.454 388.796 223.698 377.414 224.269 374.939C224.984 371.842 224.737 364.342 222.602 357.309C219.963 348.618 209.021 338.725 209.021 338.725H211.88C211.88 338.725 221.444 347.316 224.508 354.688C227.343 361.51 227.764 371.365 227.128 372.795C226.175 374.939 221.276 383.82 218.075 391.14C215.077 397.995 213.548 408.294 213.548 408.294C213.548 408.294 196.803 413.679 186.864 418.539C174.826 424.425 157.486 436.45 157.486 436.45C157.486 436.45 166.3 416.289 168.519 403.052C171.366 386.077 169.949 358.976 169.949 358.976Z" fill="#FFAB00"/>
<path d="M248.094 356.832C248.094 356.832 257.386 359.929 264.533 355.641C270.315 352.171 278.352 347.54 278.352 347.54C278.352 347.54 281.86 353.28 282.402 357.785C282.836 361.387 282.17 364.805 280.02 368.506C277.551 372.754 268.822 375.415 268.822 375.415C268.822 375.415 270.588 378.233 269.775 383.516C268.822 389.71 264.652 391.226 259.768 392.807C254.885 394.389 248.809 391.378 246.426 388.995C243.522 386.091 243.496 380.823 244.521 376.845C245.555 372.826 252.144 369.697 252.144 369.697C252.144 369.697 247.797 365.117 247.379 362.073C247.097 360.012 248.094 356.832 248.094 356.832Z" fill="#330E0E"/>
<path d="M209.736 409.247L245.95 400.432L273.825 396.858C273.825 396.858 288.598 371.717 301.701 358.738C311.736 348.797 326.002 338.01 330.29 336.581C331.647 336.129 329.315 331.067 330.29 327.766C331.557 323.477 341.679 322.136 347.683 316.806C351.97 313 356.587 304.679 360.548 306.085C364.509 307.491 362.06 318.792 360.548 321.333C343.394 350.161 340.773 352.544 322.19 380.181C311.974 395.374 307.114 409.872 297.889 425.686C292.051 435.693 288.12 441.649 273.825 448.32C250.017 459.43 212.119 474.765 212.119 474.765C212.119 474.765 204.495 460.471 204.495 445.461C204.495 431.815 209.736 409.247 209.736 409.247Z" fill="#D39365"/>
<path d="M137.547 459.041C137.547 459.041 155.229 470.692 164.469 482.866C173.71 495.04 177.811 509.073 177.811 509.073L160.181 518.842C160.181 518.842 177.768 519.903 194.012 522.654C204.916 524.5 229.273 531.231 229.273 531.231C229.273 531.231 232.695 525.268 235.944 525.036C242.615 524.56 249.633 534.326 259.292 536.71C264.581 538.016 272.558 535.996 273.349 537.902C274.141 539.808 266.452 547.432 260.96 547.432C250 547.432 236.421 545.287 236.421 545.287C236.421 545.287 222.92 543.079 211.88 545.287C184.482 550.767 161.275 560.535 130.638 560.535C122.299 560.535 103.226 562.172 93.4711 550.767C82.3437 537.757 84.5442 521.537 93.4711 506.929C106.574 485.487 137.547 459.041 137.547 459.041Z" fill="#D39365"/>
<path d="M129.67 521.224C129.67 521.224 138.17 519.69 144.218 519.318C150.265 518.946 160.642 519.318 160.642 519.318" stroke="#7C563A" stroke-width="2" stroke-linecap="round"/>
</g>
<g filter="url(#filter3_d)">
<path d="M467.586 428.301C467.586 428.301 490.21 436.392 502.464 445.406C510.334 451.195 514.625 452.855 522.458 462.067C534.263 475.95 538.897 491.835 550.006 506.795C557.859 517.369 558.912 525.933 561.778 530.711C564.444 535.154 563.269 538.387 563.334 541.596C563.418 545.765 576.023 546.479 580.439 551.593C584.659 556.48 585.993 561.524 591.102 561.145C594.212 560.913 585.33 539.896 584.214 537.375C578.216 523.824 574.606 504.162 573.108 494.278C571.997 486.947 566.41 464.563 562.001 448.072C559.211 437.637 552.951 415.86 543.785 408.085C525.102 392.239 494.534 374.938 494.534 374.938C494.534 374.938 484.163 385.921 480.473 399.421C477.118 411.694 467.586 428.301 467.586 428.301Z" fill="#E8C6A9"/>
<path d="M431.82 492.057C426.711 497.833 392.945 537.598 386.502 554.703C382.545 565.209 388.502 583.756 386.947 584.027C381.837 584.916 381.295 580.637 377.616 574.475C372.815 566.432 364.474 566.395 362.32 562.566C360.652 559.6 360.733 557.148 362.998 554.038C365.119 551.127 367.842 546.484 367.842 546.484C367.842 546.484 377.002 521.177 386.502 498.5C393.389 482.061 401.861 468.017 407.162 452.738C414.715 430.967 418.714 418.749 424.268 398.755C428.127 384.86 439.373 381.428 439.373 381.428L453.591 395.645L471.807 404.087C471.807 404.087 480.662 413.34 478.694 419.193C465.325 458.957 438.923 484.029 431.82 492.057Z" fill="#EFCFB3"/>
<ellipse cx="502.019" cy="233.255" rx="12.8846" ry="11.996" fill="#0B0504"/>
<path d="M537.563 253.249C524.234 257.692 527.355 276.574 516.681 276.574C506.007 276.574 500.242 269.569 500.242 257.914C500.242 246.258 509.339 237.476 520.013 237.476C530.687 237.476 537.563 241.593 537.563 253.249Z" fill="#0B0504"/>
<path d="M336.297 335.443C340.975 334.037 344.295 336.554 344.961 338.109C345.305 338.911 344.961 343.44 344.961 343.44C344.961 343.44 353.817 343.497 356.735 342.33C371.174 336.554 381.616 332.938 395.833 325.669C411.053 317.887 418.152 311.005 430.71 303.454C446.542 293.934 452.262 286.002 468.919 282.794C479.398 280.776 497.132 282.794 497.132 282.794L504.019 270.798C504.019 270.798 506.933 272.971 509.128 273.242C511.138 273.49 514.443 271.687 515.126 270.798C517.348 267.91 517.792 263.689 517.792 263.689C517.792 263.689 514.238 261.384 514.238 259.024C514.238 254.137 517.143 252.804 519.791 252.804C522.013 252.804 523.568 253.977 525.123 254.359C527.271 254.887 527.566 254.804 530.676 254.359C532.691 254.071 535.564 253.693 535.564 253.693C535.564 253.693 535.786 262.579 531.787 269.243C529.478 273.092 528.655 277.254 524.456 279.018C520.857 280.529 514.238 279.684 514.238 279.684L511.572 285.682C511.572 285.682 528.233 289.014 546.893 305.009C558.33 314.811 573.922 325.891 582.437 325.891C587.324 325.891 593.536 317.321 599.32 311.229C605.237 304.998 610.865 295.901 610.872 293.457C610.884 288.601 606.005 286.628 607.984 282.794C609.962 278.96 616.494 278.882 620.202 281.906C622.988 284.177 623.353 288.118 622.868 291.68C622.201 296.567 618.666 306.178 615.981 313.673C610.669 328.502 606.207 337.442 599.32 351.216C598.098 353.659 589.99 359.435 584.88 359.435C569.862 359.435 562.817 356.924 548.67 351.882C536.455 347.528 528.523 344.986 517.125 338.109C508.24 332.747 496.244 321.892 496.244 321.892L462.033 323.003C462.033 323.003 442.621 338.978 428.266 345.218C412.23 352.189 397.61 356.769 383.837 358.769C370.272 360.738 358.956 360.768 347.849 357.88C343.85 356.84 332.743 350.327 331.41 345.662C330.195 341.409 331.606 336.853 336.297 335.443Z" fill="#EFCFB3"/>
<path d="M455.813 353.659L494.244 368.987L492.911 373.43L500.464 377.651L490.023 390.536C490.023 390.536 488.247 400.593 486.469 406.752C484.69 412.912 480.915 422.081 480.915 422.081L422.046 401.865C422.046 401.865 427.74 384.705 433.598 375.874C440.381 365.648 455.813 353.659 455.813 353.659Z" fill="#42526E"/>
<path d="M477.805 281.906H480.915V292.569C480.915 292.569 481.36 299.455 482.026 302.788C482.811 306.715 493.356 309.452 501.575 312.118C512.238 315.576 515.126 313.673 518.458 311.229C521.371 309.094 522.088 306.105 523.346 301.899C524.64 297.57 524.456 290.347 524.456 290.347L527.122 291.68C527.122 291.68 526.678 297.012 526.011 302.788C525.547 306.808 523.346 311.814 523.346 316.783C523.346 323.225 522.7 329.007 520.235 333.444C518.014 337.443 512.238 340.553 506.684 344.329C504.071 346.106 501.067 351.983 498.465 357.436C496.278 362.018 494.022 369.654 494.022 369.654L454.924 354.548C454.924 354.548 457.259 338.647 458.923 327.002C459.589 322.337 461.604 320.422 464.254 316.783C467.906 311.768 477.139 304.565 477.139 304.565L477.805 281.906Z" fill="#FFAB00"/>
</g>
<defs>
<filter id="filter0_d" x="423.865" y="63.085" width="280.955" height="402.44" filterUnits="userSpaceOnUse" color-interpolation-filters="sRGB">
<feFlood flood-opacity="0" result="BackgroundImageFix"/>
<feColorMatrix in="SourceAlpha" type="matrix" values="0 0 0 0 0 0 0 0 0 0 0 0 0 0 0 0 0 0 127 0"/>
<feOffset dy="4"/>
<feGaussianBlur stdDeviation="10"/>
<feColorMatrix type="matrix" values="0 0 0 0 0 0 0 0 0 0 0 0 0 0 0 0 0 0 0.1 0"/>
<feBlend mode="normal" in2="BackgroundImageFix" result="effect1_dropShadow"/>
<feBlend mode="normal" in="SourceGraphic" in2="effect1_dropShadow" result="shape"/>
</filter>
<filter id="filter1_d" x="246.294" y="14.6567" width="213.565" height="518.964" filterUnits="userSpaceOnUse" color-interpolation-filters="sRGB">
<feFlood flood-opacity="0" result="BackgroundImageFix"/>
<feColorMatrix in="SourceAlpha" type="matrix" values="0 0 0 0 0 0 0 0 0 0 0 0 0 0 0 0 0 0 127 0"/>
<feOffset dy="4"/>
<feGaussianBlur stdDeviation="10"/>
<feColorMatrix type="matrix" values="0 0 0 0 0 0 0 0 0 0 0 0 0 0 0 0 0 0 0.1 0"/>
<feBlend mode="normal" in2="BackgroundImageFix" result="effect1_dropShadow"/>
<feBlend mode="normal" in="SourceGraphic" in2="effect1_dropShadow" result="shape"/>
</filter>
<filter id="filter2_d" x="65.9282" y="206.221" width="316.767" height="378.395" filterUnits="userSpaceOnUse" color-interpolation-filters="sRGB">
<feFlood flood-opacity="0" result="BackgroundImageFix"/>
<feColorMatrix in="SourceAlpha" type="matrix" values="0 0 0 0 0 0 0 0 0 0 0 0 0 0 0 0 0 0 127 0"/>
<feOffset dy="4"/>
<feGaussianBlur stdDeviation="10"/>
<feColorMatrix type="matrix" values="0 0 0 0 0 0 0 0 0 0 0 0 0 0 0 0 0 0 0.1 0"/>
<feBlend mode="normal" in2="BackgroundImageFix" result="effect1_dropShadow"/>
<feBlend mode="normal" in="SourceGraphic" in2="effect1_dropShadow" result="shape"/>
</filter>
<filter id="filter3_d" x="310.996" y="205.259" width="332.053" height="402.884" filterUnits="userSpaceOnUse" color-interpolation-filters="sRGB">
<feFlood flood-opacity="0" result="BackgroundImageFix"/>
<feColorMatrix in="SourceAlpha" type="matrix" values="0 0 0 0 0 0 0 0 0 0 0 0 0 0 0 0 0 0 127 0"/>
<feOffset dy="4"/>
<feGaussianBlur stdDeviation="10"/>
<feColorMatrix type="matrix" values="0 0 0 0 0 0 0 0 0 0 0 0 0 0 0 0 0 0 0.1 0"/>
<feBlend mode="normal" in2="BackgroundImageFix" result="effect1_dropShadow"/>
<feBlend mode="normal" in="SourceGraphic" in2="effect1_dropShadow" result="shape"/>
</filter>
<linearGradient id="paint0_linear" x1="519.164" y1="227.382" x2="530.425" y2="180.622" gradientUnits="userSpaceOnUse">
<stop offset="0.514762" stop-color="#BC7438"/>
<stop offset="1" stop-color="#A66732"/>
</linearGradient>
</defs>
</svg>
