<svg width="31" height="31" viewBox="0 0 31 31" fill="none" xmlns="http://www.w3.org/2000/svg">
<rect width="31" height="31" fill="white" fill-opacity="0"/>
<path d="M19.375 7.75C19.375 5.6099 17.6401 3.875 15.5 3.875C13.3599 3.875 11.625 5.6099 11.625 7.75V15.5C11.625 17.6401 13.3599 19.375 15.5 19.375C17.6401 19.375 19.375 17.6401 19.375 15.5V7.75Z" fill="#0B0504"/>
<path d="M16.7917 23.1428C20.451 22.528 23.25 19.344 23.25 15.509V11.625C23.25 11.2824 23.1139 10.9539 22.8717 10.7117C22.6294 10.4694 22.3009 10.3333 21.9583 10.3333C21.6158 10.3333 21.2872 10.4694 21.045 10.7117C20.8028 10.9539 20.6667 11.2824 20.6667 11.625V15.5078C20.6643 16.8766 20.1189 18.1886 19.1503 19.1558C18.1816 20.1229 16.8688 20.6663 15.5 20.6667C12.6519 20.6667 10.3333 18.3481 10.3333 15.5078V11.625C10.3333 11.2824 10.1972 10.9539 9.95501 10.7117C9.71278 10.4694 9.38424 10.3333 9.04167 10.3333C8.6991 10.3333 8.37056 10.4694 8.12832 10.7117C7.88609 10.9539 7.75 11.2824 7.75 11.625V15.5078C7.75 19.3311 10.5426 22.5254 14.2083 23.1415V25.8217C14.2083 26.1643 14.3444 26.4928 14.5867 26.7351C14.8289 26.9773 15.1574 27.1134 15.5 27.1134C15.8426 27.1134 16.1711 26.9773 16.4133 26.7351C16.6556 26.4928 16.7917 26.1643 16.7917 25.8217V23.1428Z" fill="#0B0504"/>
</svg>
