<svg width="24" height="24" viewBox="0 0 24 24" fill="none" xmlns="http://www.w3.org/2000/svg">
<rect width="24" height="24" transform="translate(24) rotate(90)" fill="white" fill-opacity="0"/>
<path fill-rule="evenodd" clip-rule="evenodd" d="M18 11L8.414 11L12.207 7.20699C12.2999 7.1142 12.3737 7.004 12.424 6.88268C12.4743 6.76137 12.5002 6.63132 12.5002 6.49999C12.5002 6.36865 12.4743 6.23861 12.424 6.11729C12.3737 5.99598 12.2999 5.88578 12.207 5.79299C11.817 5.40299 11.183 5.40299 10.792 5.79299L5.293 11.293C5.19982 11.3856 5.12595 11.4958 5.07565 11.6171C5.02536 11.7385 4.99964 11.8686 5 12C4.99964 12.1314 5.02536 12.2615 5.07565 12.3828C5.12595 12.5042 5.19982 12.6144 5.293 12.707L10.792 18.207C10.8848 18.2999 10.9951 18.3736 11.1164 18.4239C11.2377 18.4742 11.3678 18.5001 11.4991 18.5002C11.6305 18.5002 11.7606 18.4744 11.8819 18.4242C12.0033 18.374 12.1136 18.3003 12.2065 18.2075C12.2994 18.1146 12.3731 18.0044 12.4234 17.8831C12.4737 17.7617 12.4997 17.6317 12.4997 17.5003C12.4997 17.369 12.4739 17.2389 12.4237 17.1176C12.3735 16.9962 12.2998 16.8859 12.207 16.793L8.414 13L18 13C18.2652 13 18.5196 12.8946 18.7071 12.7071C18.8946 12.5196 19 12.2652 19 12C19 11.7348 18.8946 11.4804 18.7071 11.2929C18.5196 11.1053 18.2652 11 18 11Z" fill="#42526E"/>
</svg>
