<svg width="281" height="338" viewBox="0 0 281 338" fill="none" xmlns="http://www.w3.org/2000/svg">
<g filter="url(#filter0_d)">
<path d="M258.281 75.1634C258.281 79.3014 252.882 81.9539 243.591 84.8881C216.073 93.578 212.762 95.0263 198.28 103.302C183.797 111.577 175.107 119.026 175.107 119.026L137.244 143.855L109.726 133.303C109.726 133.303 133.264 116.19 137.244 112.27C146.347 103.302 159.058 96.4373 172.831 88.8184C182.141 83.668 190.484 79.9382 204.486 77.0252C219.383 73.9262 236.484 76.1757 245.453 75.1631C249.278 74.7313 247.084 70.9268 251.039 69.9911C254.995 69.0554 258.281 71.0255 258.281 75.1634Z" fill="#BF7C4C"/>
<path d="M86.5509 20.128C91.3216 20.1282 103.931 29.7715 105.173 36.6802C109.931 63.1637 107.127 65.2442 112 87.7852C115.04 101.845 120.277 108.475 126.69 119.855C127.507 121.303 143.242 126.936 148.622 125.441C154.001 123.947 160.883 110.751 166.001 110.751C174.898 110.751 182.14 123.579 182.14 123.579L188.14 134.545L170.553 143.028C170.553 143.028 164.76 138.476 160.622 137.028C156.03 135.421 153.018 139.489 149.656 143.028C145.725 147.166 140.966 152.959 140.966 152.959C140.966 152.959 133.725 161.029 130 162.477C121.106 165.936 108.028 163.718 102.275 155.029C92.5516 140.338 82.1422 120.067 81.5852 104.337C81.0678 89.7264 83.2079 80.891 84.0681 75.3712C86.5508 59.4397 88.6199 43.5082 86.5508 33.5769C85.7659 29.8089 79.5161 29.4946 79.1137 26.0949C78.6359 22.0584 81.7802 20.1279 86.5509 20.128Z" fill="#D39365"/>
<path d="M169.106 135.993C169.106 135.993 166.569 139.002 164.554 138.269C162.278 137.442 159.851 133.508 161.244 132.269C163.106 130.614 165.588 131.855 165.588 131.855" stroke="#81573A" stroke-width="2" stroke-linecap="round"/>
<path d="M62.5508 225.168C62.5508 225.168 81.8464 204.321 95.6552 195.581C109.16 187.034 130.829 181.512 130.829 181.512L133.104 237.582C133.104 237.582 129.307 247.014 122.552 253.721C116.417 259.812 100.828 270.48 100.828 270.48L85.31 246.065L62.5508 225.168Z" fill="#A72A1D"/>
<path d="M92.9658 138.89C92.9658 138.89 102.627 161.234 116.553 162.891C132.484 164.786 139.643 154.902 140.14 152.752C140.76 150.063 140.546 143.55 138.691 137.442C136.4 129.894 126.898 121.303 126.898 121.303H129.381C129.381 121.303 137.686 128.764 140.346 135.166C142.809 141.09 143.174 149.649 142.622 150.89C141.795 152.752 137.54 160.465 134.76 166.822C132.157 172.775 130.829 181.719 130.829 181.719C130.829 181.719 116.287 186.395 107.656 190.616C97.2011 195.728 82.1431 206.17 82.1431 206.17C82.1431 206.17 89.7969 188.662 91.7244 177.167C94.1964 162.425 92.9658 138.89 92.9658 138.89Z" fill="#FFAB00"/>
<path d="M160.83 137.028C160.83 137.028 168.899 139.717 175.106 135.993C180.127 132.98 187.106 128.958 187.106 128.958C187.106 128.958 190.153 133.943 190.624 137.855C191 140.984 190.422 143.952 188.555 147.166C186.411 150.855 178.83 153.166 178.83 153.166C178.83 153.166 180.364 155.613 179.658 160.201C178.83 165.58 175.209 166.897 170.968 168.27C166.727 169.643 161.45 167.029 159.381 164.96C156.859 162.437 156.837 157.862 157.726 154.407C158.625 150.918 164.347 148.2 164.347 148.2C164.347 148.2 160.572 144.222 160.209 141.58C159.964 139.79 160.83 137.028 160.83 137.028Z" fill="#330E0E"/>
<path d="M127.518 182.546L158.967 174.891L183.175 171.787C183.175 171.787 196.004 149.954 207.383 138.683C216.097 130.05 228.487 120.682 232.211 119.441C233.389 119.048 231.364 114.653 232.211 111.785C233.311 108.061 242.101 106.897 247.315 102.268C251.038 98.9621 255.047 91.7364 258.487 92.9573C261.928 94.1781 259.8 103.993 258.487 106.199C243.59 131.234 241.314 133.303 225.176 157.304C216.304 170.498 212.083 183.089 204.072 196.822C199.003 205.512 195.589 210.685 183.175 216.478C162.499 226.127 129.587 239.444 129.587 239.444C129.587 239.444 122.966 227.03 122.966 213.995C122.966 202.145 127.518 182.546 127.518 182.546Z" fill="#D39365"/>
<path d="M64.8273 225.789C64.8273 225.789 80.1824 235.907 88.2073 246.479C96.2322 257.051 99.7934 269.238 99.7934 269.238L84.4831 277.721C84.4831 277.721 99.7562 278.643 113.863 281.032C123.333 282.635 144.484 288.48 144.484 288.48C144.484 288.48 147.457 283.302 150.278 283.101C156.071 282.687 162.166 291.169 170.554 293.239C175.147 294.372 182.075 292.618 182.762 294.273C183.449 295.928 176.772 302.549 172.002 302.549C162.484 302.549 150.692 300.687 150.692 300.687C150.692 300.687 138.967 298.77 129.38 300.687C105.587 305.446 85.4331 313.929 58.8272 313.929C51.5851 313.929 35.0215 315.35 26.5504 305.446C16.8871 294.148 18.7981 280.062 26.5504 267.376C37.9296 248.755 64.8273 225.789 64.8273 225.789Z" fill="#D39365"/>
<path d="M57.9864 279.79C57.9864 279.79 65.3681 278.458 70.6201 278.135C75.8722 277.812 84.8837 278.135 84.8837 278.135" stroke="#7C563A" stroke-width="2" stroke-linecap="round"/>
</g>
<defs>
<filter id="filter0_d" x="0" y="4.12793" width="280.352" height="333.872" filterUnits="userSpaceOnUse" color-interpolation-filters="sRGB">
<feFlood flood-opacity="0" result="BackgroundImageFix"/>
<feColorMatrix in="SourceAlpha" type="matrix" values="0 0 0 0 0 0 0 0 0 0 0 0 0 0 0 0 0 0 127 0"/>
<feOffset dy="4"/>
<feGaussianBlur stdDeviation="10"/>
<feColorMatrix type="matrix" values="0 0 0 0 0 0 0 0 0 0 0 0 0 0 0 0 0 0 0.1 0"/>
<feBlend mode="normal" in2="BackgroundImageFix" result="effect1_dropShadow"/>
<feBlend mode="normal" in="SourceGraphic" in2="effect1_dropShadow" result="shape"/>
</filter>
</defs>
</svg>
