<svg width="206" height="206" viewBox="0 0 206 206" fill="none" xmlns="http://www.w3.org/2000/svg">
<g clip-path="url(#clip0)">
<path d="M130.681 160.42C130.253 160.483 129.825 160.514 129.396 160.575C129.825 160.514 130.253 160.483 130.681 160.42Z" fill="#FFF4DD"/>
<path d="M88.3664 161.568C87.8963 161.536 87.468 161.504 86.9962 161.474C87.4245 161.504 87.8963 161.536 88.3664 161.568Z" fill="#FFF4DD"/>
<path d="M147.341 157.573C147 157.666 146.657 157.728 146.314 157.821C146.657 157.728 147 157.666 147.341 157.573Z" fill="#FFF4DD"/>
<path d="M129.311 160.576C128.883 160.639 128.455 160.669 128.026 160.73C128.455 160.669 128.883 160.639 129.311 160.576Z" fill="#FFF4DD"/>
<path d="M86.9109 161.475C86.4391 161.443 85.969 161.413 85.4972 161.381C85.969 161.413 86.4391 161.443 86.9109 161.475Z" fill="#FFF4DD"/>
<path d="M155.522 155.221C155.393 155.283 155.222 155.313 155.094 155.376C155.222 155.313 155.393 155.251 155.522 155.221Z" fill="#FFF4DD"/>
<path d="M132.095 160.236C131.667 160.298 131.238 160.359 130.767 160.391C131.195 160.359 131.623 160.298 132.095 160.236Z" fill="#FFF4DD"/>
<path d="M125.028 161.01C124.6 161.04 124.214 161.071 123.785 161.133C124.214 161.103 124.6 161.04 125.028 161.01Z" fill="#FFF4DD"/>
<path d="M91.2791 161.722C90.8508 161.69 90.4225 161.69 90.0377 161.659C90.4225 161.69 90.8508 161.69 91.2791 161.722Z" fill="#FFF4DD"/>
<path d="M133.465 160.081C133.037 160.143 132.609 160.204 132.137 160.266C132.565 160.174 132.993 160.143 133.465 160.081Z" fill="#FFF4DD"/>
<path d="M127.897 160.73C127.469 160.761 127.041 160.823 126.613 160.855C127.041 160.823 127.469 160.793 127.897 160.73Z" fill="#FFF4DD"/>
<path d="M148.455 157.295C148.112 157.388 147.813 157.45 147.47 157.543C147.813 157.45 148.112 157.388 148.455 157.295Z" fill="#FFF4DD"/>
<path d="M126.442 160.885C126.014 160.916 125.627 160.978 125.199 161.009C125.627 160.948 126.055 160.916 126.442 160.885Z" fill="#FFF4DD"/>
<path d="M89.8236 161.659C89.3953 161.629 88.9235 161.597 88.4952 161.597C88.9235 161.597 89.3518 161.629 89.8236 161.659Z" fill="#FFF4DD"/>
<path d="M123.615 161.133C123.23 161.165 122.802 161.195 122.415 161.227C122.802 161.195 123.186 161.165 123.615 161.133Z" fill="#FFF4DD"/>
<path d="M140.06 159.059C139.632 159.121 139.203 159.214 138.775 159.276C139.203 159.214 139.632 159.121 140.06 159.059Z" fill="#FFF4DD"/>
<path d="M157.278 154.57C157.191 154.602 157.106 154.633 157.064 154.664C157.106 154.633 157.191 154.602 157.278 154.57Z" fill="#FFF4DD"/>
<path d="M146.185 157.853C145.842 157.944 145.457 158.007 145.114 158.099C145.457 158.007 145.8 157.914 146.185 157.853Z" fill="#FFF4DD"/>
<path d="M144.985 158.099C144.601 158.192 144.216 158.254 143.873 158.347C144.258 158.254 144.644 158.192 144.985 158.099Z" fill="#FFF4DD"/>
<path d="M156.422 154.88C156.293 154.911 156.208 154.973 156.079 155.003C156.208 154.973 156.293 154.942 156.422 154.88Z" fill="#FFF4DD"/>
<path d="M142.588 158.595C142.201 158.688 141.773 158.749 141.388 158.811C141.773 158.749 142.16 158.656 142.588 158.595Z" fill="#FFF4DD"/>
<path d="M141.345 158.843C140.917 158.904 140.532 158.998 140.104 159.059C140.488 158.966 140.917 158.904 141.345 158.843Z" fill="#FFF4DD"/>
<path d="M138.775 159.275C138.347 159.337 137.919 159.43 137.49 159.492C137.919 159.43 138.347 159.337 138.775 159.275Z" fill="#FFF4DD"/>
<path d="M136.164 159.678C135.735 159.74 135.307 159.802 134.835 159.864C135.264 159.833 135.735 159.74 136.164 159.678Z" fill="#FFF4DD"/>
<path d="M134.793 159.895C134.365 159.956 133.937 160.019 133.465 160.081C133.937 160.019 134.365 159.956 134.793 159.895Z" fill="#FFF4DD"/>
<path d="M158.092 154.229C158.048 154.261 158.006 154.261 157.963 154.293C158.006 154.261 158.048 154.261 158.092 154.229Z" fill="#FFF4DD"/>
<path d="M152.695 156.15C152.48 156.212 152.224 156.273 152.01 156.366C152.224 156.273 152.439 156.212 152.695 156.15Z" fill="#FFF4DD"/>
<path d="M137.49 159.492C137.062 159.555 136.634 159.617 136.205 159.678C136.592 159.617 137.02 159.555 137.49 159.492Z" fill="#FFF4DD"/>
<path d="M108.924 161.938C108.625 161.938 108.282 161.938 107.982 161.969C108.282 161.938 108.581 161.938 108.924 161.938Z" fill="#FFF4DD"/>
<path d="M153.638 155.84C153.424 155.902 153.251 155.964 153.037 156.025C153.251 155.964 153.466 155.902 153.638 155.84Z" fill="#FFF4DD"/>
<path d="M143.787 158.347C143.401 158.44 143.016 158.501 142.63 158.595C143.016 158.501 143.401 158.44 143.787 158.347Z" fill="#FFF4DD"/>
<path d="M150.64 156.737C150.339 156.799 150.083 156.892 149.783 156.954C150.083 156.892 150.339 156.799 150.64 156.737Z" fill="#FFF4DD"/>
<path d="M111.88 161.845C111.537 161.845 111.238 161.877 110.895 161.877C111.194 161.877 111.537 161.845 111.88 161.845Z" fill="#FFF4DD"/>
<path d="M98.6034 161.969C98.3022 161.969 97.9609 161.969 97.6598 161.938C97.9609 161.938 98.3022 161.969 98.6034 161.969Z" fill="#FFF4DD"/>
<path d="M110.381 161.876C110.038 161.876 109.739 161.907 109.396 161.907C109.739 161.907 110.08 161.907 110.381 161.876Z" fill="#FFF4DD"/>
<path d="M105.97 161.968C105.627 161.968 105.284 161.968 104.941 161.968C105.284 162.001 105.627 162.001 105.97 161.968Z" fill="#FFF4DD"/>
<path d="M37.9576 145.006L37.9141 144.913C38.3423 153.92 60.399 159.555 85.4537 161.349C60.486 159.585 38.4712 153.983 37.9576 145.006Z" fill="#FFF4DD"/>
<path d="M166.058 140.114C166.1 140.144 166.144 140.207 166.185 140.237L166.272 140.299C167.385 141.507 167.986 142.9 168.071 144.355C168.113 144.448 168.113 144.541 168.113 144.664V144.943L190.169 62.8792L145.243 47.3081L103.013 84.5168L163.917 138.195L166.058 140.114Z" fill="#FFF4DD"/>
<path d="M151.667 156.428C151.41 156.489 151.154 156.583 150.896 156.644C151.154 156.583 151.41 156.521 151.667 156.428Z" fill="#FFF4DD"/>
<path d="M113.336 161.783C112.993 161.783 112.693 161.814 112.35 161.814C112.693 161.814 113.036 161.814 113.336 161.783Z" fill="#FFF4DD"/>
<path d="M119.246 161.474C118.86 161.504 118.519 161.536 118.132 161.536C118.475 161.504 118.86 161.504 119.246 161.474Z" fill="#FFF4DD"/>
<path d="M94.1917 161.846C93.8052 161.846 93.4204 161.813 93.0356 161.813C93.4204 161.813 93.8052 161.813 94.1917 161.846Z" fill="#FFF4DD"/>
<path d="M154.622 155.531C154.451 155.592 154.28 155.654 154.108 155.716C154.28 155.654 154.451 155.592 154.622 155.531Z" fill="#FFF4DD"/>
<path d="M117.747 161.567C117.361 161.597 117.02 161.597 116.633 161.629C117.02 161.597 117.404 161.597 117.747 161.567Z" fill="#FFF4DD"/>
<path d="M120.702 161.381C120.317 161.413 119.931 161.443 119.546 161.475C119.931 161.413 120.317 161.413 120.702 161.381Z" fill="#FFF4DD"/>
<path d="M92.7345 161.784C92.3062 161.752 91.9214 161.752 91.4932 161.722C91.8779 161.752 92.3062 161.784 92.7345 161.784Z" fill="#FFF4DD"/>
<path d="M114.835 161.722C114.492 161.752 114.149 161.752 113.807 161.784C114.107 161.752 114.492 161.722 114.835 161.722Z" fill="#FFF4DD"/>
<path d="M122.159 161.257C121.773 161.288 121.388 161.32 121.001 161.35C121.344 161.32 121.773 161.288 122.159 161.257Z" fill="#FFF4DD"/>
<path d="M97.1462 161.939C96.8033 161.939 96.462 161.907 96.119 161.907C96.4185 161.907 96.7614 161.907 97.1462 161.939Z" fill="#FFF4DD"/>
<path d="M149.569 157.016C149.268 157.109 148.969 157.17 148.669 157.264C148.927 157.17 149.268 157.109 149.569 157.016Z" fill="#FFF4DD"/>
<path d="M116.29 161.659C115.949 161.69 115.562 161.69 115.219 161.722C115.606 161.69 115.949 161.659 116.29 161.659Z" fill="#FFF4DD"/>
<path d="M95.6472 161.877C95.2624 161.877 94.876 161.845 94.5347 161.845C94.9195 161.877 95.2624 161.877 95.6472 161.877Z" fill="#FFF4DD"/>
<path d="M153.037 156.025C152.909 156.056 152.781 156.087 152.653 156.149C152.781 156.118 152.909 156.056 153.037 156.025Z" fill="#FFF4DD"/>
<path d="M154.108 155.686C153.979 155.747 153.809 155.777 153.68 155.84C153.809 155.777 153.937 155.747 154.108 155.686Z" fill="#FFF4DD"/>
<path d="M155.093 155.344C154.923 155.406 154.751 155.468 154.622 155.499C154.751 155.468 154.923 155.406 155.093 155.344Z" fill="#FFF4DD"/>
<path d="M156.079 155.003C155.907 155.066 155.692 155.128 155.522 155.19C155.692 155.158 155.907 155.066 156.079 155.003Z" fill="#FFF4DD"/>
<path d="M157.021 154.664C156.807 154.757 156.593 154.818 156.378 154.911C156.636 154.818 156.807 154.725 157.021 154.664Z" fill="#FFF4DD"/>
<path d="M93.0358 161.814C92.9488 161.814 92.8216 161.814 92.7346 161.814C92.8216 161.783 92.9488 161.783 93.0358 161.814Z" fill="#FFF4DD"/>
<path d="M158.819 153.92C158.563 154.013 158.306 154.138 158.048 154.229C158.349 154.138 158.605 154.013 158.819 153.92Z" fill="#FFF4DD"/>
<path d="M157.963 154.292C157.749 154.384 157.493 154.477 157.278 154.571C157.493 154.477 157.707 154.384 157.963 154.292Z" fill="#FFF4DD"/>
<path d="M116.677 161.629C116.548 161.629 116.419 161.629 116.29 161.66C116.419 161.629 116.548 161.629 116.677 161.629Z" fill="#FFF4DD"/>
<path d="M118.09 161.536C117.962 161.536 117.876 161.536 117.747 161.568C117.876 161.568 118.003 161.536 118.09 161.536Z" fill="#FFF4DD"/>
<path d="M113.764 161.752C113.635 161.752 113.465 161.752 113.336 161.784C113.506 161.784 113.635 161.784 113.764 161.752Z" fill="#FFF4DD"/>
<path d="M119.546 161.442C119.461 161.442 119.332 161.442 119.246 161.475C119.332 161.475 119.461 161.442 119.546 161.442Z" fill="#FFF4DD"/>
<path d="M115.22 161.69C115.092 161.69 114.964 161.69 114.791 161.723C114.964 161.723 115.092 161.69 115.22 161.69Z" fill="#FFF4DD"/>
<path d="M123.785 161.133C123.7 161.133 123.658 161.133 123.571 161.165C123.658 161.133 123.743 161.133 123.785 161.133Z" fill="#FFF4DD"/>
<path d="M125.199 161.01C125.157 161.01 125.07 161.01 125.028 161.041C125.07 161.01 125.157 161.01 125.199 161.01Z" fill="#FFF4DD"/>
<path d="M122.373 161.226C122.286 161.226 122.201 161.226 122.116 161.258C122.244 161.258 122.286 161.258 122.373 161.226Z" fill="#FFF4DD"/>
<path d="M120.96 161.349C120.874 161.349 120.787 161.349 120.66 161.381C120.787 161.349 120.874 161.349 120.96 161.349Z" fill="#FFF4DD"/>
<path d="M110.895 161.876C110.723 161.876 110.552 161.876 110.381 161.907C110.552 161.876 110.723 161.876 110.895 161.876Z" fill="#FFF4DD"/>
<path d="M37.9576 144.355C38.0429 142.9 38.6853 141.476 39.7996 140.238C39.8849 140.176 39.8849 140.145 39.9702 140.083L42.1116 138.164L103.013 84.517L60.7855 47.2769L15.8574 62.8793L37.9141 144.943C37.9141 144.851 37.9141 144.758 37.9141 144.665C37.9141 144.571 37.9141 144.478 37.9576 144.355Z" fill="#FFF4DD"/>
<path d="M168.027 145.129C167.771 148.566 164.345 151.475 158.863 153.89C164.472 151.444 167.942 148.441 168.113 144.913L168.071 145.006L168.027 145.129Z" fill="#FFF4DD"/>
<path d="M126.613 160.855C126.569 160.855 126.527 160.855 126.442 160.855C126.527 160.885 126.569 160.855 126.613 160.855Z" fill="#FFF4DD"/>
<path d="M107.982 161.938C107.811 161.938 107.639 161.938 107.469 161.938C107.597 161.968 107.768 161.938 107.982 161.938Z" fill="#FFF4DD"/>
<path d="M112.35 161.813C112.18 161.813 112.007 161.813 111.88 161.846C112.007 161.846 112.18 161.846 112.35 161.813Z" fill="#FFF4DD"/>
<path d="M109.438 161.907C109.267 161.907 109.096 161.907 108.924 161.907C109.096 161.938 109.267 161.907 109.438 161.907Z" fill="#FFF4DD"/>
<path d="M146.314 157.821C146.27 157.821 146.228 157.853 146.185 157.853C146.228 157.821 146.27 157.821 146.314 157.821Z" fill="#FFF4DD"/>
<path d="M145.072 158.069C145.029 158.069 145.029 158.069 144.985 158.1C145.029 158.1 145.072 158.1 145.072 158.069Z" fill="#FFF4DD"/>
<path d="M149.783 156.954C149.696 156.985 149.611 156.985 149.569 157.016C149.611 157.016 149.696 156.985 149.783 156.954Z" fill="#FFF4DD"/>
<path d="M150.896 156.644C150.811 156.676 150.725 156.706 150.64 156.706C150.725 156.706 150.811 156.676 150.896 156.644Z" fill="#FFF4DD"/>
<path d="M147.47 157.542C147.428 157.542 147.385 157.574 147.341 157.574C147.385 157.574 147.428 157.542 147.47 157.542Z" fill="#FFF4DD"/>
<path d="M148.626 157.263C148.584 157.263 148.499 157.296 148.455 157.296C148.499 157.296 148.584 157.263 148.626 157.263Z" fill="#FFF4DD"/>
<path d="M151.967 156.335C151.881 156.367 151.753 156.397 151.624 156.429C151.753 156.397 151.881 156.367 151.967 156.335Z" fill="#FFF4DD"/>
<path d="M105.973 160.979H106.53H107.427H107.94C108.241 160.979 108.582 160.979 108.883 160.949H109.396C109.738 160.949 110.037 160.918 110.38 160.918C110.55 160.918 110.721 160.918 110.893 160.888C111.235 160.888 111.534 160.857 111.877 160.857C112.047 160.857 112.218 160.857 112.347 160.826C112.689 160.826 112.988 160.796 113.331 160.796C113.459 160.796 113.63 160.796 113.759 160.764C114.101 160.764 114.444 160.734 114.785 160.703C114.913 160.703 115.042 160.703 115.212 160.672C115.555 160.642 115.941 160.642 116.282 160.61C116.41 160.61 116.539 160.61 116.668 160.58C117.052 160.549 117.395 160.549 117.779 160.518C117.908 160.518 117.993 160.518 118.121 160.488C118.507 160.457 118.848 160.457 119.234 160.427C119.32 160.427 119.448 160.427 119.533 160.395C119.918 160.364 120.304 160.334 120.688 160.303C120.773 160.303 120.86 160.303 120.987 160.273C121.373 160.241 121.758 160.21 122.144 160.18C122.229 160.18 122.314 160.18 122.399 160.149C122.785 160.119 123.213 160.088 123.597 160.056C123.682 160.056 123.726 160.056 123.811 160.026C124.239 159.995 124.623 159.965 125.051 159.903C125.094 159.903 125.18 159.903 125.223 159.872C125.651 159.841 126.079 159.78 126.463 159.749H126.635C127.063 159.719 127.491 159.657 127.918 159.626H128.045C128.473 159.595 128.901 159.534 129.329 159.472H129.416C129.843 159.411 130.271 159.38 130.699 159.318H130.784C131.212 159.257 131.64 159.226 132.109 159.165H132.153C132.58 159.103 133.052 159.042 133.479 158.98H133.521C133.949 158.918 134.42 158.857 134.848 158.796H134.89C135.317 158.734 135.789 158.672 136.216 158.611C136.644 158.549 137.072 158.488 137.5 158.427C137.928 158.364 138.355 158.303 138.783 158.21C139.211 158.149 139.639 158.057 140.066 157.995C140.494 157.934 140.878 157.841 141.306 157.78H141.35C141.734 157.719 142.162 157.626 142.548 157.565H142.59C142.976 157.504 143.36 157.411 143.746 157.319H143.831C144.215 157.226 144.601 157.165 144.942 157.072C144.986 157.072 144.986 157.072 145.029 157.042C145.413 156.95 145.756 156.888 146.099 156.796C146.14 156.796 146.184 156.765 146.226 156.765C146.568 156.672 146.911 156.611 147.253 156.518C147.295 156.518 147.338 156.488 147.382 156.488C147.723 156.396 148.024 156.334 148.364 156.242C148.408 156.242 148.493 156.21 148.537 156.21C148.836 156.149 149.135 156.057 149.434 155.965C149.521 155.934 149.606 155.934 149.648 155.903C149.948 155.841 150.204 155.749 150.503 155.688C150.59 155.658 150.675 155.626 150.761 155.626C151.018 155.565 151.274 155.473 151.531 155.411C151.66 155.38 151.745 155.35 151.873 155.319C152.087 155.257 152.343 155.196 152.557 155.104C152.686 155.072 152.814 155.042 152.943 154.98C153.157 154.918 153.327 154.857 153.541 154.796C153.67 154.735 153.84 154.703 153.969 154.642C154.139 154.581 154.311 154.518 154.482 154.457C154.654 154.396 154.824 154.334 154.953 154.303C155.082 154.242 155.252 154.211 155.381 154.149C155.551 154.088 155.765 154.027 155.937 153.965C156.064 153.934 156.151 153.873 156.278 153.842C156.492 153.749 156.706 153.688 156.92 153.595C157.007 153.565 157.092 153.534 157.134 153.504C157.348 153.411 157.605 153.319 157.819 153.226C157.862 153.196 157.904 153.196 157.947 153.165C158.203 153.072 158.46 152.95 158.718 152.857H158.76C164.279 150.457 167.657 147.534 167.915 144.15L167.957 144.027L168 143.935C168 143.842 168 143.75 168 143.658C168 143.566 168 143.473 167.957 143.351C167.871 141.904 167.273 140.519 166.16 139.32L166.075 139.258C166.032 139.227 165.99 139.166 165.946 139.135L163.808 137.227L103.021 84L42.1925 137.351L40.0536 139.258C39.9684 139.32 39.9684 139.351 39.8832 139.412C38.7285 140.612 38.1287 142.027 38.0434 143.505C38 143.596 38 143.688 38 143.812V144.089L38.0434 144.181C38.5564 153.104 60.5448 158.672 85.5258 160.457C85.997 160.488 86.4666 160.518 86.9378 160.549H87.023C87.4942 160.58 87.922 160.61 88.3915 160.642H88.5202C88.948 160.672 89.4192 160.703 89.8469 160.703H90.0608C90.4886 160.734 90.9164 160.734 91.3007 160.764H91.5146C91.9423 160.796 92.3267 160.796 92.7544 160.826H93.0552C93.4395 160.826 93.8239 160.857 94.2099 160.857H94.5524C94.9367 160.857 95.321 160.888 95.6636 160.888H96.0914C96.4339 160.888 96.7765 160.918 97.119 160.918H97.632C97.9311 160.918 98.2737 160.918 98.5728 160.949H99.2144H100.027H100.882H101.482H102.936H104.391H104.861C105.288 161.011 105.631 161.011 105.973 160.979Z" fill="#FFD379"/>
<path d="M168 144.5C168 134.834 138.899 127 103 127C67.1023 127 38 134.834 38 144.5C38 154.166 67.1023 162 103 162C138.899 162 168 154.166 168 144.5Z" fill="#FFC44A"/>
<path d="M203.789 29.8461L193.382 51.518C192.826 52.7175 191.627 53.4871 190.298 53.4871C189.785 53.4871 189.313 53.3599 188.843 53.1876L187.386 52.5034C187.258 52.4164 187.13 52.3745 187.001 52.2892L157.921 38.3265C156.208 37.5134 155.522 35.4573 156.293 33.786L166.657 12.1576C171.283 1.79341 183.446 -2.8324 193.81 1.79341C204.176 6.41922 208.8 18.5818 204.176 28.9477C204.089 29.2036 203.961 29.5466 203.789 29.8461Z" fill="#7082A2"/>
<path d="M198.35 60.726C198.35 63.2957 197.751 65.8219 196.637 68.1357C196.08 69.3335 194.881 70.1048 193.554 70.1048C193.04 70.1048 192.525 69.9759 192.097 69.7618L190.213 68.8634L183.832 65.8219L151.624 50.3618L145.286 47.3203L142.63 46.0355C140.917 45.2224 140.189 43.2081 141.004 41.495C141.004 41.495 141.004 41.495 141.004 41.4532C144.729 33.7006 153.595 29.8895 161.775 32.5445C161.903 32.588 162.075 32.6298 162.204 32.7152L190.084 46.1208C190.298 46.2061 190.512 46.335 190.727 46.4638C195.481 49.6759 198.307 54.986 198.35 60.726Z" fill="#42526E"/>
<path d="M49.8207 37.5988C49.5212 38.4554 48.9223 39.1831 48.0657 39.5679L46.7809 40.1685L18.9842 53.5306C18.9423 53.5741 18.8554 53.5741 18.8135 53.616L17.1422 54.3872C16.6721 54.6014 16.2003 54.6867 15.6867 54.6867C14.3584 54.6867 13.1605 53.9154 12.6034 52.7176L2.23924 31.131C-2.90018 21.0245 1.08153 8.64605 11.1897 3.4648C21.2979 -1.71811 33.6747 2.3071 38.8576 12.4153C39.0282 12.7148 39.1571 13.0577 39.3277 13.3572L49.6919 34.9856C50.1202 35.8421 50.1636 36.784 49.8207 37.5988Z" fill="#7082A2"/>
<path d="M63.3971 46.0355L60.7421 47.3203L54.4031 50.3618L22.1964 65.8219L15.8156 68.8634L13.9302 69.7618C13.4601 69.9759 12.9883 70.1048 12.4747 70.1048C11.1463 70.1048 9.94847 69.3335 9.39136 68.1357C8.27715 65.8219 7.67822 63.2957 7.67822 60.726C7.67822 55.0295 10.5039 49.6759 15.2585 46.5073C15.4292 46.4203 15.6868 46.2496 15.9445 46.1208L43.8248 32.7152C43.9536 32.6298 44.0824 32.588 44.2531 32.5445C52.434 29.8895 61.2992 33.7006 65.0249 41.4532C65.8396 43.1663 65.1102 45.1789 63.3971 46.0355Z" fill="#42526E"/>
</g>
<defs>
<clipPath id="clip0">
<rect width="206" height="206" fill="white"/>
</clipPath>
</defs>
</svg>
