<svg width="476" height="206" viewBox="0 0 476 206" fill="none" xmlns="http://www.w3.org/2000/svg">
<g clip-path="url(#clip0)">
<path d="M379.681 160.42C379.253 160.483 378.825 160.514 378.396 160.575C378.825 160.514 379.253 160.483 379.681 160.42Z" fill="#FFF4DD"/>
<path d="M337.366 161.568C336.896 161.536 336.468 161.504 335.996 161.474C336.424 161.504 336.896 161.536 337.366 161.568Z" fill="#FFF4DD"/>
<path d="M396.341 157.573C396 157.666 395.657 157.728 395.314 157.821C395.657 157.728 396 157.666 396.341 157.573Z" fill="#FFF4DD"/>
<path d="M378.311 160.576C377.883 160.639 377.455 160.669 377.026 160.73C377.455 160.669 377.883 160.639 378.311 160.576Z" fill="#FFF4DD"/>
<path d="M335.911 161.475C335.439 161.443 334.969 161.413 334.497 161.381C334.969 161.413 335.439 161.443 335.911 161.475Z" fill="#FFF4DD"/>
<path d="M404.522 155.221C404.393 155.283 404.222 155.313 404.094 155.376C404.222 155.313 404.393 155.251 404.522 155.221Z" fill="#FFF4DD"/>
<path d="M381.095 160.236C380.667 160.298 380.238 160.359 379.767 160.391C380.195 160.359 380.623 160.298 381.095 160.236Z" fill="#FFF4DD"/>
<path d="M374.028 161.01C373.6 161.04 373.214 161.071 372.785 161.133C373.214 161.103 373.6 161.04 374.028 161.01Z" fill="#FFF4DD"/>
<path d="M340.279 161.722C339.851 161.69 339.423 161.69 339.038 161.659C339.423 161.69 339.851 161.69 340.279 161.722Z" fill="#FFF4DD"/>
<path d="M382.465 160.081C382.037 160.143 381.609 160.204 381.137 160.266C381.565 160.174 381.993 160.143 382.465 160.081Z" fill="#FFF4DD"/>
<path d="M376.897 160.73C376.469 160.761 376.041 160.823 375.613 160.855C376.041 160.823 376.469 160.793 376.897 160.73Z" fill="#FFF4DD"/>
<path d="M397.455 157.295C397.112 157.388 396.813 157.45 396.47 157.543C396.813 157.45 397.112 157.388 397.455 157.295Z" fill="#FFF4DD"/>
<path d="M375.442 160.885C375.014 160.916 374.627 160.978 374.199 161.009C374.627 160.948 375.055 160.916 375.442 160.885Z" fill="#FFF4DD"/>
<path d="M338.824 161.659C338.395 161.629 337.924 161.597 337.495 161.597C337.924 161.597 338.352 161.629 338.824 161.659Z" fill="#FFF4DD"/>
<path d="M372.615 161.133C372.23 161.165 371.802 161.195 371.415 161.227C371.802 161.195 372.186 161.165 372.615 161.133Z" fill="#FFF4DD"/>
<path d="M389.06 159.059C388.632 159.121 388.203 159.214 387.775 159.276C388.203 159.214 388.632 159.121 389.06 159.059Z" fill="#FFF4DD"/>
<path d="M406.278 154.57C406.191 154.602 406.106 154.633 406.064 154.664C406.106 154.633 406.191 154.602 406.278 154.57Z" fill="#FFF4DD"/>
<path d="M395.185 157.853C394.842 157.944 394.457 158.007 394.114 158.099C394.457 158.007 394.8 157.914 395.185 157.853Z" fill="#FFF4DD"/>
<path d="M393.985 158.099C393.601 158.192 393.216 158.254 392.873 158.347C393.258 158.254 393.644 158.192 393.985 158.099Z" fill="#FFF4DD"/>
<path d="M405.422 154.88C405.293 154.911 405.208 154.973 405.079 155.003C405.208 154.973 405.293 154.942 405.422 154.88Z" fill="#FFF4DD"/>
<path d="M391.588 158.595C391.201 158.688 390.773 158.749 390.388 158.811C390.773 158.749 391.16 158.656 391.588 158.595Z" fill="#FFF4DD"/>
<path d="M390.345 158.843C389.917 158.904 389.532 158.998 389.104 159.059C389.488 158.966 389.917 158.904 390.345 158.843Z" fill="#FFF4DD"/>
<path d="M387.775 159.275C387.347 159.337 386.919 159.43 386.49 159.492C386.919 159.43 387.347 159.337 387.775 159.275Z" fill="#FFF4DD"/>
<path d="M385.164 159.678C384.735 159.74 384.307 159.802 383.835 159.864C384.264 159.833 384.735 159.74 385.164 159.678Z" fill="#FFF4DD"/>
<path d="M383.793 159.895C383.365 159.956 382.937 160.019 382.465 160.081C382.937 160.019 383.365 159.956 383.793 159.895Z" fill="#FFF4DD"/>
<path d="M407.092 154.229C407.048 154.261 407.006 154.261 406.963 154.293C407.006 154.261 407.048 154.261 407.092 154.229Z" fill="#FFF4DD"/>
<path d="M401.695 156.15C401.48 156.212 401.224 156.273 401.01 156.366C401.224 156.273 401.439 156.212 401.695 156.15Z" fill="#FFF4DD"/>
<path d="M386.49 159.492C386.062 159.555 385.634 159.617 385.205 159.678C385.592 159.617 386.02 159.555 386.49 159.492Z" fill="#FFF4DD"/>
<path d="M357.924 161.938C357.625 161.938 357.282 161.938 356.982 161.969C357.282 161.938 357.581 161.938 357.924 161.938Z" fill="#FFF4DD"/>
<path d="M402.638 155.84C402.424 155.902 402.251 155.964 402.037 156.025C402.251 155.964 402.466 155.902 402.638 155.84Z" fill="#FFF4DD"/>
<path d="M392.787 158.347C392.401 158.44 392.016 158.501 391.63 158.595C392.016 158.501 392.401 158.44 392.787 158.347Z" fill="#FFF4DD"/>
<path d="M399.64 156.737C399.339 156.799 399.083 156.892 398.783 156.954C399.083 156.892 399.339 156.799 399.64 156.737Z" fill="#FFF4DD"/>
<path d="M360.88 161.845C360.537 161.845 360.238 161.877 359.895 161.877C360.194 161.877 360.537 161.845 360.88 161.845Z" fill="#FFF4DD"/>
<path d="M347.603 161.969C347.302 161.969 346.961 161.969 346.66 161.938C346.961 161.938 347.302 161.969 347.603 161.969Z" fill="#FFF4DD"/>
<path d="M359.381 161.876C359.038 161.876 358.739 161.907 358.396 161.907C358.739 161.907 359.08 161.907 359.381 161.876Z" fill="#FFF4DD"/>
<path d="M354.97 161.968C354.627 161.968 354.284 161.968 353.941 161.968C354.284 162.001 354.627 162.001 354.97 161.968Z" fill="#FFF4DD"/>
<path d="M286.958 145.006L286.914 144.913C287.342 153.92 309.399 159.555 334.454 161.349C309.486 159.585 287.471 153.983 286.958 145.006Z" fill="#FFF4DD"/>
<path d="M415.058 140.114C415.1 140.144 415.144 140.207 415.185 140.237L415.272 140.299C416.385 141.507 416.986 142.9 417.071 144.355C417.113 144.448 417.113 144.541 417.113 144.664V144.943L439.169 62.8792L394.243 47.3081L352.013 84.5168L412.917 138.195L415.058 140.114Z" fill="#FFF4DD"/>
<path d="M400.667 156.428C400.41 156.489 400.154 156.583 399.896 156.644C400.154 156.583 400.41 156.521 400.667 156.428Z" fill="#FFF4DD"/>
<path d="M362.336 161.783C361.993 161.783 361.693 161.814 361.35 161.814C361.693 161.814 362.036 161.814 362.336 161.783Z" fill="#FFF4DD"/>
<path d="M368.246 161.474C367.86 161.504 367.519 161.536 367.132 161.536C367.475 161.504 367.86 161.504 368.246 161.474Z" fill="#FFF4DD"/>
<path d="M343.192 161.846C342.805 161.846 342.42 161.813 342.036 161.813C342.42 161.813 342.805 161.813 343.192 161.846Z" fill="#FFF4DD"/>
<path d="M403.622 155.531C403.451 155.592 403.28 155.654 403.108 155.716C403.28 155.654 403.451 155.592 403.622 155.531Z" fill="#FFF4DD"/>
<path d="M366.747 161.567C366.361 161.597 366.02 161.597 365.633 161.629C366.02 161.597 366.404 161.597 366.747 161.567Z" fill="#FFF4DD"/>
<path d="M369.702 161.381C369.317 161.413 368.931 161.443 368.546 161.475C368.931 161.413 369.317 161.413 369.702 161.381Z" fill="#FFF4DD"/>
<path d="M341.735 161.784C341.306 161.752 340.921 161.752 340.493 161.722C340.878 161.752 341.306 161.784 341.735 161.784Z" fill="#FFF4DD"/>
<path d="M363.835 161.722C363.492 161.752 363.149 161.752 362.807 161.784C363.107 161.752 363.492 161.722 363.835 161.722Z" fill="#FFF4DD"/>
<path d="M371.159 161.257C370.773 161.288 370.388 161.32 370.001 161.35C370.344 161.32 370.773 161.288 371.159 161.257Z" fill="#FFF4DD"/>
<path d="M346.146 161.939C345.803 161.939 345.462 161.907 345.119 161.907C345.418 161.907 345.761 161.907 346.146 161.939Z" fill="#FFF4DD"/>
<path d="M398.569 157.016C398.268 157.109 397.969 157.17 397.669 157.264C397.927 157.17 398.268 157.109 398.569 157.016Z" fill="#FFF4DD"/>
<path d="M365.29 161.659C364.949 161.69 364.562 161.69 364.219 161.722C364.606 161.69 364.949 161.659 365.29 161.659Z" fill="#FFF4DD"/>
<path d="M344.647 161.877C344.262 161.877 343.876 161.845 343.535 161.845C343.919 161.877 344.262 161.877 344.647 161.877Z" fill="#FFF4DD"/>
<path d="M402.037 156.025C401.909 156.056 401.781 156.087 401.653 156.149C401.781 156.118 401.909 156.056 402.037 156.025Z" fill="#FFF4DD"/>
<path d="M403.108 155.686C402.979 155.747 402.809 155.777 402.68 155.84C402.809 155.777 402.937 155.747 403.108 155.686Z" fill="#FFF4DD"/>
<path d="M404.093 155.344C403.923 155.406 403.751 155.468 403.622 155.499C403.751 155.468 403.923 155.406 404.093 155.344Z" fill="#FFF4DD"/>
<path d="M405.079 155.003C404.907 155.066 404.692 155.128 404.522 155.19C404.692 155.158 404.907 155.066 405.079 155.003Z" fill="#FFF4DD"/>
<path d="M406.021 154.664C405.807 154.757 405.593 154.818 405.378 154.911C405.636 154.818 405.807 154.725 406.021 154.664Z" fill="#FFF4DD"/>
<path d="M342.036 161.814C341.949 161.814 341.822 161.814 341.735 161.814C341.822 161.783 341.949 161.783 342.036 161.814Z" fill="#FFF4DD"/>
<path d="M407.819 153.92C407.563 154.013 407.306 154.138 407.048 154.229C407.349 154.138 407.605 154.013 407.819 153.92Z" fill="#FFF4DD"/>
<path d="M406.963 154.292C406.749 154.384 406.493 154.477 406.278 154.571C406.493 154.477 406.707 154.384 406.963 154.292Z" fill="#FFF4DD"/>
<path d="M365.677 161.629C365.548 161.629 365.419 161.629 365.29 161.66C365.419 161.629 365.548 161.629 365.677 161.629Z" fill="#FFF4DD"/>
<path d="M367.09 161.536C366.962 161.536 366.876 161.536 366.747 161.568C366.876 161.568 367.003 161.536 367.09 161.536Z" fill="#FFF4DD"/>
<path d="M362.764 161.752C362.635 161.752 362.465 161.752 362.336 161.784C362.506 161.784 362.635 161.784 362.764 161.752Z" fill="#FFF4DD"/>
<path d="M368.546 161.442C368.461 161.442 368.332 161.442 368.246 161.475C368.332 161.475 368.461 161.442 368.546 161.442Z" fill="#FFF4DD"/>
<path d="M364.22 161.69C364.092 161.69 363.964 161.69 363.791 161.723C363.964 161.723 364.092 161.69 364.22 161.69Z" fill="#FFF4DD"/>
<path d="M372.785 161.133C372.7 161.133 372.658 161.133 372.571 161.165C372.658 161.133 372.743 161.133 372.785 161.133Z" fill="#FFF4DD"/>
<path d="M374.199 161.01C374.157 161.01 374.07 161.01 374.028 161.041C374.07 161.01 374.157 161.01 374.199 161.01Z" fill="#FFF4DD"/>
<path d="M371.373 161.226C371.286 161.226 371.201 161.226 371.116 161.258C371.244 161.258 371.286 161.258 371.373 161.226Z" fill="#FFF4DD"/>
<path d="M369.96 161.349C369.874 161.349 369.787 161.349 369.66 161.381C369.787 161.349 369.874 161.349 369.96 161.349Z" fill="#FFF4DD"/>
<path d="M359.895 161.876C359.723 161.876 359.552 161.876 359.381 161.907C359.552 161.876 359.723 161.876 359.895 161.876Z" fill="#FFF4DD"/>
<path d="M286.958 144.355C287.043 142.9 287.685 141.476 288.8 140.238C288.885 140.176 288.885 140.145 288.97 140.083L291.112 138.164L352.013 84.517L309.786 47.2769L264.857 62.8793L286.914 144.943C286.914 144.851 286.914 144.758 286.914 144.665C286.914 144.571 286.914 144.478 286.958 144.355Z" fill="#FFF4DD"/>
<path d="M417.027 145.129C416.771 148.566 413.345 151.475 407.863 153.89C413.472 151.444 416.942 148.441 417.113 144.913L417.071 145.006L417.027 145.129Z" fill="#FFF4DD"/>
<path d="M375.613 160.855C375.569 160.855 375.527 160.855 375.442 160.855C375.527 160.885 375.569 160.855 375.613 160.855Z" fill="#FFF4DD"/>
<path d="M356.982 161.938C356.811 161.938 356.639 161.938 356.469 161.938C356.597 161.968 356.768 161.938 356.982 161.938Z" fill="#FFF4DD"/>
<path d="M361.35 161.813C361.18 161.813 361.007 161.813 360.88 161.846C361.007 161.846 361.18 161.846 361.35 161.813Z" fill="#FFF4DD"/>
<path d="M358.438 161.907C358.267 161.907 358.096 161.907 357.924 161.907C358.096 161.938 358.267 161.907 358.438 161.907Z" fill="#FFF4DD"/>
<path d="M395.314 157.821C395.27 157.821 395.228 157.853 395.185 157.853C395.228 157.821 395.27 157.821 395.314 157.821Z" fill="#FFF4DD"/>
<path d="M394.072 158.069C394.029 158.069 394.029 158.069 393.985 158.1C394.029 158.1 394.072 158.1 394.072 158.069Z" fill="#FFF4DD"/>
<path d="M398.783 156.954C398.696 156.985 398.611 156.985 398.569 157.016C398.611 157.016 398.696 156.985 398.783 156.954Z" fill="#FFF4DD"/>
<path d="M399.896 156.644C399.811 156.676 399.725 156.706 399.64 156.706C399.725 156.706 399.811 156.676 399.896 156.644Z" fill="#FFF4DD"/>
<path d="M396.47 157.542C396.428 157.542 396.385 157.574 396.341 157.574C396.385 157.574 396.428 157.542 396.47 157.542Z" fill="#FFF4DD"/>
<path d="M397.626 157.263C397.584 157.263 397.499 157.296 397.455 157.296C397.499 157.296 397.584 157.263 397.626 157.263Z" fill="#FFF4DD"/>
<path d="M400.967 156.335C400.881 156.367 400.753 156.397 400.624 156.429C400.753 156.397 400.881 156.367 400.967 156.335Z" fill="#FFF4DD"/>
<path d="M354.973 160.979H355.53H356.427H356.94C357.241 160.979 357.582 160.979 357.883 160.949H358.396C358.738 160.949 359.037 160.918 359.38 160.918C359.55 160.918 359.721 160.918 359.893 160.888C360.235 160.888 360.534 160.857 360.877 160.857C361.047 160.857 361.218 160.857 361.347 160.826C361.689 160.826 361.988 160.796 362.331 160.796C362.459 160.796 362.63 160.796 362.759 160.764C363.101 160.764 363.444 160.734 363.785 160.703C363.913 160.703 364.042 160.703 364.212 160.672C364.555 160.642 364.941 160.642 365.282 160.61C365.41 160.61 365.539 160.61 365.668 160.58C366.052 160.549 366.395 160.549 366.779 160.518C366.908 160.518 366.993 160.518 367.121 160.488C367.507 160.457 367.848 160.457 368.234 160.427C368.32 160.427 368.448 160.427 368.533 160.395C368.918 160.364 369.304 160.334 369.688 160.303C369.773 160.303 369.86 160.303 369.987 160.273C370.373 160.241 370.758 160.21 371.144 160.18C371.229 160.18 371.314 160.18 371.399 160.149C371.785 160.119 372.213 160.088 372.597 160.056C372.682 160.056 372.726 160.056 372.811 160.026C373.239 159.995 373.623 159.965 374.051 159.903C374.094 159.903 374.18 159.903 374.223 159.872C374.651 159.841 375.079 159.78 375.463 159.749H375.635C376.063 159.719 376.491 159.657 376.918 159.626H377.045C377.473 159.595 377.901 159.534 378.329 159.472H378.416C378.843 159.411 379.271 159.38 379.699 159.318H379.784C380.212 159.257 380.64 159.226 381.109 159.165H381.153C381.58 159.103 382.052 159.042 382.479 158.98H382.521C382.949 158.918 383.42 158.857 383.848 158.796H383.89C384.317 158.734 384.789 158.672 385.216 158.611C385.644 158.549 386.072 158.488 386.5 158.427C386.928 158.364 387.355 158.303 387.783 158.21C388.211 158.149 388.639 158.057 389.066 157.995C389.494 157.934 389.878 157.841 390.306 157.78H390.35C390.734 157.719 391.162 157.626 391.548 157.565H391.59C391.976 157.504 392.36 157.411 392.746 157.319H392.831C393.215 157.226 393.601 157.165 393.942 157.072C393.986 157.072 393.986 157.072 394.029 157.042C394.413 156.95 394.756 156.888 395.099 156.796C395.14 156.796 395.184 156.765 395.226 156.765C395.568 156.672 395.911 156.611 396.253 156.518C396.295 156.518 396.338 156.488 396.382 156.488C396.723 156.396 397.024 156.334 397.364 156.242C397.408 156.242 397.493 156.21 397.537 156.21C397.836 156.149 398.135 156.057 398.434 155.965C398.521 155.934 398.606 155.934 398.648 155.903C398.948 155.841 399.204 155.749 399.503 155.688C399.59 155.658 399.675 155.626 399.761 155.626C400.018 155.565 400.274 155.473 400.531 155.411C400.66 155.38 400.745 155.35 400.873 155.319C401.087 155.257 401.343 155.196 401.557 155.104C401.686 155.072 401.814 155.042 401.943 154.98C402.157 154.918 402.327 154.857 402.541 154.796C402.67 154.735 402.84 154.703 402.969 154.642C403.139 154.581 403.311 154.518 403.482 154.457C403.654 154.396 403.824 154.334 403.953 154.303C404.082 154.242 404.252 154.211 404.381 154.149C404.551 154.088 404.765 154.027 404.937 153.965C405.064 153.934 405.151 153.873 405.278 153.842C405.492 153.749 405.706 153.688 405.92 153.595C406.007 153.565 406.092 153.534 406.134 153.504C406.348 153.411 406.605 153.319 406.819 153.226C406.862 153.196 406.904 153.196 406.947 153.165C407.203 153.072 407.46 152.95 407.718 152.857H407.76C413.279 150.457 416.657 147.534 416.915 144.15L416.957 144.027L417 143.935C417 143.842 417 143.75 417 143.658C417 143.566 417 143.473 416.957 143.351C416.871 141.904 416.273 140.519 415.16 139.32L415.075 139.258C415.032 139.227 414.99 139.166 414.946 139.135L412.808 137.227L352.021 84L291.192 137.351L289.054 139.258C288.968 139.32 288.968 139.351 288.883 139.412C287.729 140.612 287.129 142.027 287.043 143.505C287 143.596 287 143.688 287 143.812V144.089L287.043 144.181C287.556 153.104 309.545 158.672 334.526 160.457C334.997 160.488 335.467 160.518 335.938 160.549H336.023C336.494 160.58 336.922 160.61 337.392 160.642H337.52C337.948 160.672 338.419 160.703 338.847 160.703H339.061C339.489 160.734 339.916 160.734 340.301 160.764H340.515C340.942 160.796 341.327 160.796 341.754 160.826H342.055C342.44 160.826 342.824 160.857 343.21 160.857H343.552C343.937 160.857 344.321 160.888 344.664 160.888H345.091C345.434 160.888 345.776 160.918 346.119 160.918H346.632C346.931 160.918 347.274 160.918 347.573 160.949H348.214H349.027H349.882H350.482H351.936H353.391H353.861C354.288 161.011 354.631 161.011 354.973 160.979Z" fill="#FFD379"/>
<path d="M417 144.5C417 134.834 387.899 127 352 127C316.102 127 287 134.834 287 144.5C287 154.166 316.102 162 352 162C387.899 162 417 154.166 417 144.5Z" fill="#FFC44A"/>
<path d="M452.789 29.8461L442.382 51.518C441.826 52.7175 440.627 53.4871 439.298 53.4871C438.785 53.4871 438.313 53.3599 437.843 53.1876L436.386 52.5034C436.258 52.4164 436.13 52.3745 436.001 52.2892L406.921 38.3265C405.208 37.5134 404.522 35.4573 405.293 33.786L415.657 12.1576C420.283 1.79341 432.446 -2.8324 442.81 1.79341C453.176 6.41922 457.8 18.5818 453.176 28.9477C453.089 29.2036 452.961 29.5466 452.789 29.8461Z" fill="#7082A2"/>
<path d="M447.35 60.726C447.35 63.2957 446.751 65.8219 445.637 68.1357C445.08 69.3335 443.881 70.1048 442.554 70.1048C442.04 70.1048 441.525 69.9759 441.097 69.7618L439.213 68.8634L432.832 65.8219L400.624 50.3618L394.286 47.3203L391.63 46.0355C389.917 45.2224 389.189 43.2081 390.004 41.495C390.004 41.495 390.004 41.495 390.004 41.4532C393.729 33.7006 402.595 29.8895 410.775 32.5445C410.903 32.588 411.075 32.6298 411.204 32.7152L439.084 46.1208C439.298 46.2061 439.512 46.335 439.727 46.4638C444.481 49.6759 447.307 54.986 447.35 60.726Z" fill="#42526E"/>
<path d="M298.821 37.5988C298.521 38.4554 297.922 39.1831 297.066 39.5679L295.781 40.1685L267.984 53.5306C267.942 53.5741 267.855 53.5741 267.814 53.616L266.142 54.3872C265.672 54.6014 265.2 54.6867 264.687 54.6867C263.358 54.6867 262.161 53.9154 261.603 52.7176L251.239 31.131C246.1 21.0245 250.082 8.64605 260.19 3.4648C270.298 -1.71811 282.675 2.3071 287.858 12.4153C288.028 12.7148 288.157 13.0577 288.328 13.3572L298.692 34.9856C299.12 35.8421 299.164 36.784 298.821 37.5988Z" fill="#7082A2"/>
<path d="M312.397 46.0355L309.742 47.3203L303.403 50.3618L271.196 65.8219L264.816 68.8634L262.93 69.7618C262.46 69.9759 261.988 70.1048 261.475 70.1048C260.146 70.1048 258.948 69.3335 258.391 68.1357C257.277 65.8219 256.678 63.2957 256.678 60.726C256.678 55.0295 259.504 49.6759 264.259 46.5073C264.429 46.4203 264.687 46.2496 264.944 46.1208L292.825 32.7152C292.954 32.6298 293.082 32.588 293.253 32.5445C301.434 29.8895 310.299 33.7006 314.025 41.4532C314.84 43.1663 314.11 45.1789 312.397 46.0355Z" fill="#42526E"/>
</g>
<path d="M4.896 143V92.6H22.104C28.008 92.6 32.856 93.656 36.648 95.768C40.488 97.832 43.32 100.76 45.144 104.552C47.016 108.296 47.952 112.712 47.952 117.8C47.952 122.888 47.016 127.328 45.144 131.12C43.32 134.864 40.488 137.792 36.648 139.904C32.856 141.968 28.008 143 22.104 143H4.896ZM14.112 135.08H21.672C25.896 135.08 29.232 134.408 31.68 133.064C34.128 131.672 35.88 129.704 36.936 127.16C37.992 124.568 38.52 121.448 38.52 117.8C38.52 114.2 37.992 111.104 36.936 108.512C35.88 105.92 34.128 103.928 31.68 102.536C29.232 101.144 25.896 100.448 21.672 100.448H14.112V135.08ZM56.8091 143L75.2411 92.6H85.6091L104.041 143H94.2491L90.2171 131.336H70.5611L66.4571 143H56.8091ZM73.0811 124.136H87.6971L80.3531 103.184L73.0811 124.136ZM117.734 143V92.6H126.95L150.638 128.096V92.6H159.854V143H150.638L126.95 107.576V143H117.734ZM199.648 143.864C194.56 143.864 190.192 142.784 186.544 140.624C182.896 138.416 180.088 135.368 178.12 131.48C176.152 127.544 175.168 123.008 175.168 117.872C175.168 112.736 176.152 108.2 178.12 104.264C180.088 100.328 182.896 97.256 186.544 95.048C190.192 92.84 194.56 91.736 199.648 91.736C205.696 91.736 210.64 93.248 214.48 96.272C218.368 99.248 220.792 103.448 221.752 108.872H211.6C210.976 106.136 209.632 104 207.568 102.464C205.552 100.88 202.864 100.088 199.504 100.088C194.848 100.088 191.2 101.672 188.56 104.84C185.92 108.008 184.6 112.352 184.6 117.872C184.6 123.392 185.92 127.736 188.56 130.904C191.2 134.024 194.848 135.584 199.504 135.584C202.864 135.584 205.552 134.864 207.568 133.424C209.632 131.936 210.976 129.896 211.6 127.304H221.752C220.792 132.488 218.368 136.544 214.48 139.472C210.64 142.4 205.696 143.864 199.648 143.864ZM237.11 143V92.6H270.014V100.016H246.326V113.84H267.854V121.04H246.326V135.584H270.014V143H237.11ZM285.935 143V92.6H318.479V100.016H295.151V114.128H314.015V121.4H295.151V143H285.935ZM332.791 143V92.6H365.695V100.016H342.007V113.84H363.535V121.04H342.007V135.584H365.695V143H332.791ZM398.824 143.864C395.128 143.864 391.864 143.24 389.032 141.992C386.2 140.696 383.968 138.872 382.336 136.52C380.704 134.12 379.864 131.216 379.816 127.808H389.536C389.632 130.16 390.472 132.152 392.056 133.784C393.688 135.368 395.92 136.16 398.752 136.16C401.2 136.16 403.144 135.584 404.584 134.432C406.024 133.232 406.744 131.648 406.744 129.68C406.744 127.616 406.096 126.008 404.8 124.856C403.552 123.704 401.872 122.768 399.76 122.048C397.648 121.328 395.392 120.56 392.992 119.744C389.104 118.4 386.128 116.672 384.064 114.56C382.048 112.448 381.04 109.64 381.04 106.136C380.992 103.16 381.688 100.616 383.128 98.504C384.616 96.344 386.632 94.688 389.176 93.536C391.72 92.336 394.648 91.736 397.96 91.736C401.32 91.736 404.272 92.336 406.816 93.536C409.408 94.736 411.424 96.416 412.864 98.576C414.352 100.736 415.144 103.304 415.24 106.28H405.376C405.328 104.504 404.632 102.944 403.288 101.6C401.992 100.208 400.168 99.512 397.816 99.512C395.8 99.464 394.096 99.968 392.704 101.024C391.36 102.032 390.688 103.52 390.688 105.488C390.688 107.168 391.216 108.512 392.272 109.52C393.328 110.48 394.768 111.296 396.592 111.968C398.416 112.64 400.504 113.36 402.856 114.128C405.352 114.992 407.632 116 409.696 117.152C411.76 118.304 413.416 119.84 414.664 121.76C415.912 123.632 416.536 126.056 416.536 129.032C416.536 131.672 415.864 134.12 414.52 136.376C413.176 138.632 411.184 140.456 408.544 141.848C405.904 143.192 402.664 143.864 398.824 143.864ZM442.88 143V100.016H428.192V92.6H466.856V100.016H452.096V143H442.88Z" fill="#A72A1D"/>
<defs>
<clipPath id="clip0">
<rect width="206" height="206" fill="white" transform="translate(249)"/>
</clipPath>
</defs>
</svg>
