<svg width="429" height="361" viewBox="0 0 429 361" fill="none" xmlns="http://www.w3.org/2000/svg">
<path d="M29.25 0C13.563 0 0 12.1895 0 27.8789V264.469C0 280.158 13.563 292.5 29.25 292.5H160.57C160.098 303.712 158.822 313.698 156 321.598C152.569 331.2 147.683 337.399 139.09 341.25H121.875C116.49 341.25 112.125 345.615 112.125 351C112.125 356.385 116.49 360.75 121.875 360.75H307.125C312.51 360.75 316.875 356.385 316.875 351C316.875 345.615 312.51 341.25 307.125 341.25H289.91C281.317 337.399 276.431 331.2 273 321.598C270.178 313.698 268.902 303.712 268.43 292.5H399.75C415.437 292.5 429 280.158 429 264.469V27.8789C429 12.1895 415.437 0 399.75 0H29.25ZM29.25 19.5H399.75C405.669 19.5 409.5 23.4027 409.5 27.8789V264.469C409.5 268.945 405.669 273 399.75 273H29.25C23.331 273 19.5 268.945 19.5 264.469V27.8789C19.5 23.4027 23.331 19.5 29.25 19.5ZM180.07 292.5H248.93C249.394 305.123 250.798 317.175 254.719 328.148C256.361 332.744 258.583 337.188 261.27 341.25H167.73C170.416 337.188 172.639 332.744 174.281 328.148C178.202 317.175 179.606 305.123 180.07 292.5Z" fill="#42526E"/>
<path d="M160.655 204.192C159.556 204.192 158.591 203.952 157.759 203.472C156.937 202.981 156.292 202.299 155.823 201.424C155.364 200.549 155.135 199.541 155.135 198.4C155.135 197.259 155.364 196.256 155.823 195.392C156.292 194.517 156.937 193.835 157.759 193.344C158.591 192.853 159.556 192.608 160.655 192.608C161.764 192.608 162.729 192.853 163.551 193.344C164.383 193.835 165.028 194.517 165.487 195.392C165.945 196.256 166.175 197.259 166.175 198.4C166.175 199.541 165.945 200.549 165.487 201.424C165.028 202.299 164.383 202.981 163.551 203.472C162.729 203.952 161.764 204.192 160.655 204.192ZM160.655 203.008C161.476 203.008 162.196 202.827 162.815 202.464C163.444 202.091 163.929 201.563 164.271 200.88C164.623 200.187 164.799 199.36 164.799 198.4C164.799 197.44 164.623 196.619 164.271 195.936C163.929 195.253 163.444 194.731 162.815 194.368C162.196 193.995 161.476 193.808 160.655 193.808C159.833 193.808 159.108 193.995 158.479 194.368C157.86 194.731 157.375 195.253 157.023 195.936C156.681 196.619 156.511 197.44 156.511 198.4C156.511 199.36 156.681 200.187 157.023 200.88C157.375 201.563 157.86 202.091 158.479 202.464C159.108 202.827 159.833 203.008 160.655 203.008ZM168.034 207.52V196.064H169.25L169.378 197.376C169.634 196.992 169.996 196.645 170.466 196.336C170.946 196.027 171.554 195.872 172.29 195.872C173.079 195.872 173.767 196.053 174.354 196.416C174.94 196.779 175.394 197.275 175.714 197.904C176.044 198.533 176.21 199.248 176.21 200.048C176.21 200.848 176.044 201.563 175.714 202.192C175.394 202.811 174.935 203.301 174.338 203.664C173.751 204.016 173.063 204.192 172.274 204.192C171.623 204.192 171.042 204.059 170.53 203.792C170.028 203.525 169.644 203.152 169.378 202.672V207.52H168.034ZM172.13 203.024C172.663 203.024 173.132 202.901 173.538 202.656C173.943 202.4 174.263 202.048 174.498 201.6C174.732 201.152 174.85 200.629 174.85 200.032C174.85 199.435 174.732 198.912 174.498 198.464C174.263 198.016 173.943 197.669 173.538 197.424C173.132 197.168 172.663 197.04 172.13 197.04C171.596 197.04 171.127 197.168 170.722 197.424C170.316 197.669 169.996 198.016 169.762 198.464C169.527 198.912 169.41 199.435 169.41 200.032C169.41 200.629 169.527 201.152 169.762 201.6C169.996 202.048 170.316 202.4 170.722 202.656C171.127 202.901 171.596 203.024 172.13 203.024ZM181.649 204.192C180.891 204.192 180.219 204.021 179.633 203.68C179.046 203.328 178.582 202.843 178.241 202.224C177.91 201.605 177.745 200.875 177.745 200.032C177.745 199.2 177.91 198.475 178.241 197.856C178.571 197.227 179.03 196.741 179.617 196.4C180.214 196.048 180.902 195.872 181.681 195.872C182.449 195.872 183.11 196.048 183.665 196.4C184.23 196.741 184.662 197.195 184.961 197.76C185.259 198.325 185.409 198.933 185.409 199.584C185.409 199.701 185.403 199.819 185.393 199.936C185.393 200.053 185.393 200.187 185.393 200.336H179.073C179.105 200.944 179.243 201.451 179.489 201.856C179.745 202.251 180.059 202.549 180.433 202.752C180.817 202.955 181.222 203.056 181.649 203.056C182.203 203.056 182.667 202.928 183.041 202.672C183.414 202.416 183.686 202.069 183.857 201.632H185.185C184.971 202.368 184.561 202.981 183.953 203.472C183.355 203.952 182.587 204.192 181.649 204.192ZM181.649 197.008C181.009 197.008 180.438 197.205 179.937 197.6C179.446 197.984 179.163 198.549 179.089 199.296H184.081C184.049 198.581 183.803 198.021 183.345 197.616C182.886 197.211 182.321 197.008 181.649 197.008ZM187.19 204V196.064H188.406L188.486 197.488C188.742 196.987 189.11 196.592 189.59 196.304C190.07 196.016 190.614 195.872 191.222 195.872C192.161 195.872 192.907 196.16 193.462 196.736C194.027 197.301 194.31 198.176 194.31 199.36V204H192.966V199.504C192.966 197.851 192.283 197.024 190.918 197.024C190.235 197.024 189.665 197.275 189.206 197.776C188.758 198.267 188.534 198.971 188.534 199.888V204H187.19ZM200.661 204V192.8H204.101C206.074 192.8 207.525 193.301 208.453 194.304C209.391 195.307 209.861 196.683 209.861 198.432C209.861 200.149 209.391 201.509 208.453 202.512C207.525 203.504 206.074 204 204.101 204H200.661ZM202.005 202.88H204.069C205.157 202.88 206.021 202.704 206.661 202.352C207.311 201.989 207.775 201.477 208.053 200.816C208.33 200.144 208.469 199.349 208.469 198.432C208.469 197.493 208.33 196.688 208.053 196.016C207.775 195.344 207.311 194.827 206.661 194.464C206.021 194.101 205.157 193.92 204.069 193.92H202.005V202.88ZM214.361 204.192C213.7 204.192 213.151 204.08 212.713 203.856C212.276 203.632 211.951 203.333 211.737 202.96C211.524 202.587 211.417 202.181 211.417 201.744C211.417 200.933 211.727 200.309 212.345 199.872C212.964 199.435 213.807 199.216 214.873 199.216H217.017V199.12C217.017 198.427 216.836 197.904 216.473 197.552C216.111 197.189 215.625 197.008 215.017 197.008C214.495 197.008 214.041 197.141 213.657 197.408C213.284 197.664 213.049 198.043 212.953 198.544H211.577C211.631 197.968 211.823 197.483 212.153 197.088C212.495 196.693 212.916 196.395 213.417 196.192C213.919 195.979 214.452 195.872 215.017 195.872C216.127 195.872 216.959 196.171 217.513 196.768C218.079 197.355 218.361 198.139 218.361 199.12V204H217.161L217.081 202.576C216.857 203.024 216.527 203.408 216.089 203.728C215.663 204.037 215.087 204.192 214.361 204.192ZM214.569 203.056C215.081 203.056 215.519 202.923 215.881 202.656C216.255 202.389 216.537 202.043 216.729 201.616C216.921 201.189 217.017 200.741 217.017 200.272V200.256H214.985C214.196 200.256 213.636 200.395 213.305 200.672C212.985 200.939 212.825 201.275 212.825 201.68C212.825 202.096 212.975 202.432 213.273 202.688C213.583 202.933 214.015 203.056 214.569 203.056ZM220.377 204V196.064H221.593L221.673 197.488C221.929 196.987 222.297 196.592 222.777 196.304C223.257 196.016 223.801 195.872 224.409 195.872C225.348 195.872 226.095 196.16 226.649 196.736C227.215 197.301 227.497 198.176 227.497 199.36V204H226.153V199.504C226.153 197.851 225.471 197.024 224.105 197.024C223.423 197.024 222.852 197.275 222.393 197.776C221.945 198.267 221.721 198.971 221.721 199.888V204H220.377ZM233.182 204.192C232.424 204.192 231.742 204.021 231.134 203.68C230.536 203.328 230.062 202.843 229.71 202.224C229.368 201.595 229.198 200.864 229.198 200.032C229.198 199.2 229.368 198.475 229.71 197.856C230.062 197.227 230.536 196.741 231.134 196.4C231.742 196.048 232.424 195.872 233.182 195.872C234.12 195.872 234.91 196.117 235.55 196.608C236.2 197.099 236.611 197.755 236.782 198.576H235.406C235.299 198.085 235.038 197.707 234.622 197.44C234.206 197.163 233.72 197.024 233.166 197.024C232.718 197.024 232.296 197.136 231.902 197.36C231.507 197.584 231.187 197.92 230.942 198.368C230.696 198.816 230.574 199.371 230.574 200.032C230.574 200.693 230.696 201.248 230.942 201.696C231.187 202.144 231.507 202.485 231.902 202.72C232.296 202.944 232.718 203.056 233.166 203.056C233.72 203.056 234.206 202.923 234.622 202.656C235.038 202.379 235.299 201.989 235.406 201.488H236.782C236.622 202.288 236.216 202.939 235.566 203.44C234.915 203.941 234.12 204.192 233.182 204.192ZM242.227 204.192C241.469 204.192 240.797 204.021 240.211 203.68C239.624 203.328 239.16 202.843 238.819 202.224C238.488 201.605 238.323 200.875 238.323 200.032C238.323 199.2 238.488 198.475 238.819 197.856C239.149 197.227 239.608 196.741 240.195 196.4C240.792 196.048 241.48 195.872 242.259 195.872C243.027 195.872 243.688 196.048 244.243 196.4C244.808 196.741 245.24 197.195 245.539 197.76C245.837 198.325 245.987 198.933 245.987 199.584C245.987 199.701 245.981 199.819 245.971 199.936C245.971 200.053 245.971 200.187 245.971 200.336H239.651C239.683 200.944 239.821 201.451 240.067 201.856C240.323 202.251 240.637 202.549 241.011 202.752C241.395 202.955 241.8 203.056 242.227 203.056C242.781 203.056 243.245 202.928 243.619 202.672C243.992 202.416 244.264 202.069 244.435 201.632H245.763C245.549 202.368 245.139 202.981 244.531 203.472C243.933 203.952 243.165 204.192 242.227 204.192ZM242.227 197.008C241.587 197.008 241.016 197.205 240.515 197.6C240.024 197.984 239.741 198.549 239.667 199.296H244.659C244.627 198.581 244.381 198.021 243.923 197.616C243.464 197.211 242.899 197.008 242.227 197.008ZM248.2 204V197.2H247V196.064H248.2V194.688C248.2 193.92 248.392 193.36 248.776 193.008C249.16 192.656 249.72 192.48 250.456 192.48H251.256V193.632H250.664C250.259 193.632 249.971 193.717 249.8 193.888C249.629 194.048 249.544 194.325 249.544 194.72V196.064H251.496V197.2H249.544V204H248.2ZM256.352 204.192C255.594 204.192 254.922 204.021 254.336 203.68C253.749 203.328 253.285 202.843 252.944 202.224C252.613 201.605 252.448 200.875 252.448 200.032C252.448 199.2 252.613 198.475 252.944 197.856C253.274 197.227 253.733 196.741 254.32 196.4C254.917 196.048 255.605 195.872 256.384 195.872C257.152 195.872 257.813 196.048 258.368 196.4C258.933 196.741 259.365 197.195 259.664 197.76C259.962 198.325 260.112 198.933 260.112 199.584C260.112 199.701 260.106 199.819 260.096 199.936C260.096 200.053 260.096 200.187 260.096 200.336H253.776C253.808 200.944 253.946 201.451 254.192 201.856C254.448 202.251 254.762 202.549 255.136 202.752C255.52 202.955 255.925 203.056 256.352 203.056C256.906 203.056 257.37 202.928 257.744 202.672C258.117 202.416 258.389 202.069 258.56 201.632H259.888C259.674 202.368 259.264 202.981 258.656 203.472C258.058 203.952 257.29 204.192 256.352 204.192ZM256.352 197.008C255.712 197.008 255.141 197.205 254.64 197.6C254.149 197.984 253.866 198.549 253.792 199.296H258.784C258.752 198.581 258.506 198.021 258.048 197.616C257.589 197.211 257.024 197.008 256.352 197.008ZM264.933 204.192C263.984 204.192 263.194 203.952 262.565 203.472C261.936 202.992 261.568 202.341 261.461 201.52H262.837C262.922 201.936 263.141 202.299 263.493 202.608C263.856 202.907 264.341 203.056 264.949 203.056C265.514 203.056 265.93 202.939 266.197 202.704C266.464 202.459 266.597 202.171 266.597 201.84C266.597 201.36 266.421 201.04 266.069 200.88C265.728 200.72 265.242 200.576 264.613 200.448C264.186 200.363 263.76 200.24 263.333 200.08C262.906 199.92 262.549 199.696 262.261 199.408C261.973 199.109 261.829 198.72 261.829 198.24C261.829 197.547 262.085 196.981 262.597 196.544C263.12 196.096 263.824 195.872 264.709 195.872C265.552 195.872 266.24 196.085 266.773 196.512C267.317 196.928 267.632 197.525 267.717 198.304H266.389C266.336 197.899 266.16 197.584 265.861 197.36C265.573 197.125 265.184 197.008 264.693 197.008C264.213 197.008 263.84 197.109 263.573 197.312C263.317 197.515 263.189 197.781 263.189 198.112C263.189 198.432 263.354 198.683 263.685 198.864C264.026 199.045 264.485 199.2 265.061 199.328C265.552 199.435 266.016 199.568 266.453 199.728C266.901 199.877 267.264 200.107 267.541 200.416C267.829 200.715 267.973 201.152 267.973 201.728C267.984 202.443 267.712 203.035 267.157 203.504C266.613 203.963 265.872 204.192 264.933 204.192ZM272.67 204C271.944 204 271.374 203.824 270.958 203.472C270.542 203.12 270.334 202.485 270.334 201.568V197.2H268.958V196.064H270.334L270.51 194.16H271.678V196.064H274.014V197.2H271.678V201.568C271.678 202.069 271.779 202.411 271.982 202.592C272.184 202.763 272.542 202.848 273.054 202.848H273.886V204H272.67Z" fill="#4C9AFF"/>
<path d="M154.383 206H274.622V206.8H154.383V206Z" fill="#4C9AFF"/>
<path d="M168.317 97.3901C162.097 97.3901 157 102.487 157 108.707V165.293C157 171.513 162.097 176.61 168.317 176.61H261.683C267.903 176.61 273 171.513 273 165.293V108.707C273 102.487 267.903 97.3901 261.683 97.3901H168.317ZM168.317 103.049H261.683C262.5 103.049 263.243 103.239 263.938 103.535L218.537 144.073C216.392 145.988 213.7 145.988 211.552 144.073L166.062 103.535C166.757 103.239 167.5 103.049 168.317 103.049ZM162.703 108.133L195.239 137.133L163.277 167.857C162.904 167.095 162.659 166.216 162.659 165.293V108.707C162.659 108.509 162.684 108.325 162.702 108.133H162.703ZM267.297 108.133C267.316 108.325 267.341 108.509 267.341 108.707V165.293C267.341 166.216 267.096 167.095 266.722 167.857L234.849 137.088L267.297 108.133H267.297ZM230.605 140.89L261.816 170.951C261.77 170.952 261.728 170.951 261.683 170.951H168.317C168.272 170.951 168.229 170.952 168.184 170.951L199.483 140.934L207.794 148.317C211.933 152.007 218.155 152.013 222.294 148.317L230.605 140.89H230.605Z" fill="#FFAB00"/>
</svg>
